<svg version="1.1" id="Layer_1" xmlns="http://www.w3.org/2000/svg" xmlns:xlink="http://www.w3.org/1999/xlink" x="0px" y="0px"
	 width="100%" viewBox="0 0 1024 1024" enable-background="new 0 0 1024 1024" xml:space="preserve">
<path fill="#000000" opacity="1.000000" stroke="none" 
	d="
M561.935120,289.937103 
	C532.331421,296.069489 510.582428,311.916412 501.103241,340.583496 
	C494.511688,360.517792 497.206482,380.359009 508.503113,398.998077 
	C520.293579,418.451965 538.063843,430.679291 556.699646,442.168823 
	C577.969299,455.282257 599.520020,468.011047 616.604858,486.725525 
	C634.119141,505.910370 645.800842,528.036011 651.497681,553.539734 
	C654.599243,567.424622 654.950439,581.426636 653.659729,595.194519 
	C651.764771,615.409241 646.539185,635.033447 636.091248,652.860962 
	C633.823608,656.730408 631.799988,660.742126 629.597778,664.650940 
	C628.460205,666.670166 626.783508,667.974365 624.308411,667.695374 
	C606.895935,665.731812 590.021973,661.737976 574.152771,654.108398 
	C569.179749,651.717529 569.021912,650.950867 572.291199,646.270874 
	C581.049438,633.733215 587.324402,620.113342 590.790894,605.181030 
	C598.185242,573.329041 590.195679,545.661987 568.324768,521.711731 
	C555.409973,507.569092 538.656921,498.744049 522.681702,488.857605 
	C505.362518,478.139404 488.580261,466.698608 474.727264,451.589600 
	C461.554047,437.221985 451.122040,421.026917 445.010620,402.414124 
	C438.113953,381.409760 436.690704,359.935577 440.480988,338.083588 
	C446.866272,301.271057 467.180573,273.687988 497.452698,253.134216 
	C513.270203,242.394638 531.065369,235.739563 550.065979,232.767944 
	C562.235168,230.864761 574.505493,230.716812 586.802551,230.847015 
	C602.796997,231.016388 618.794739,230.938187 634.790466,230.849518 
	C638.089661,230.831223 640.928955,231.760223 643.780396,233.322495 
	C674.290100,250.038040 704.226196,267.746185 734.149780,285.474854 
	C739.156921,288.441376 743.997314,291.691071 748.887512,294.852051 
	C750.180908,295.688080 751.421875,296.646362 750.217957,298.473969 
	C744.817932,306.671661 739.519653,314.941956 733.194702,322.481018 
	C732.807434,322.942596 732.117493,323.150238 730.663147,324.012909 
	C731.217163,318.680267 731.669556,314.068787 732.184631,309.464294 
	C732.489014,306.743378 733.883667,303.634369 730.445007,302.004578 
	C727.094177,300.416412 722.799561,302.400299 721.069763,305.927094 
	C718.942932,310.263123 716.823975,314.603302 714.660828,318.921173 
	C713.874878,320.490112 713.342712,322.339081 711.071777,322.980042 
	C708.618469,318.561920 708.909363,313.915253 708.905884,309.316803 
	C708.900146,301.673401 707.767700,300.551880 699.933594,300.343292 
	C693.299133,300.166656 686.637695,299.716217 680.049988,299.587250 
	C667.743225,299.346405 655.496216,297.647705 643.176453,298.222931 
	C641.569275,298.297974 639.544739,297.762268 638.708923,299.630188 
	C637.858887,301.529724 639.563354,302.699799 640.727844,303.805725 
	C653.869751,316.286560 666.493164,329.319000 680.363831,341.025757 
	C684.432190,344.459503 687.612427,348.857574 692.069031,351.884033 
	C696.480408,354.879791 697.359802,354.579285 699.103943,349.699860 
	C700.322021,346.292236 701.715515,342.947296 703.309082,338.860199 
	C707.446594,341.798859 707.492920,345.709564 707.943359,349.239929 
	C708.320190,352.193420 707.986511,355.231110 708.102783,358.226257 
	C708.209290,360.970398 709.640320,362.581818 712.301514,361.079773 
	C716.706787,358.593384 719.461609,360.866211 722.414612,363.996124 
	C721.079895,367.936005 717.405762,369.930054 714.768982,372.772888 
	C714.214539,373.370605 713.415405,373.736053 712.751160,374.237793 
	C704.209167,380.690063 704.220459,380.677399 695.547119,374.347229 
	C661.640808,349.600983 626.744446,326.337433 590.887939,304.513916 
	C584.424622,300.580139 584.450684,300.625336 588.559937,294.218750 
	C589.594482,292.605804 591.326050,290.865936 590.083801,288.808594 
	C589.009155,287.028931 586.822510,287.571899 585.023315,287.414062 
	C577.302063,286.736816 569.892700,288.841614 561.935120,289.937103 
M669.030579,276.890747 
	C674.291138,273.182800 676.305603,268.652527 674.610352,263.255066 
	C673.134766,258.556946 669.510925,255.955704 664.778381,255.138458 
	C660.159668,254.340881 655.263672,256.983246 653.314331,261.314850 
	C651.321350,265.743408 651.809692,270.108856 654.815674,273.958008 
	C658.397644,278.544800 663.170654,278.798462 669.030579,276.890747 
z"/>
<path fill="#000000" opacity="1.000000" stroke="none" 
	d="
M418.979340,288.957153 
	C410.313171,306.065887 404.803070,323.675293 404.192017,342.608612 
	C404.103363,345.354523 402.711792,346.932190 400.440918,347.965607 
	C382.412170,356.170044 366.363312,367.394073 351.265991,380.088623 
	C341.001343,388.719574 332.398987,398.970520 324.513367,409.629608 
	C309.574310,429.822845 298.142120,451.959015 291.042542,476.198547 
	C284.385895,498.925842 281.770691,522.166870 283.289490,545.713989 
	C285.578186,581.196960 296.795715,613.891479 315.700378,643.993286 
	C330.996979,668.350037 350.679443,688.390625 374.981323,703.711060 
	C393.372314,715.305115 413.001251,724.265015 434.362732,728.987366 
	C436.278961,729.410950 437.768829,730.325500 439.055450,731.626892 
	C458.244354,751.035156 480.954681,765.412964 505.128082,777.625977 
	C511.928253,781.061523 519.100403,783.763306 526.118835,786.762207 
	C527.457703,787.334351 529.053589,787.448792 529.707947,789.069458 
	C529.524231,790.555481 528.418335,790.958801 527.254944,791.147522 
	C511.906830,793.636963 496.577332,796.125122 480.945526,796.243713 
	C456.415375,796.429871 432.535004,792.805786 408.918396,786.130737 
	C379.349274,777.773193 352.773956,763.740662 328.178162,745.687073 
	C293.492920,720.227722 267.542084,687.381531 249.028900,648.850159 
	C238.112183,626.129150 230.422211,602.221497 226.311539,577.068665 
	C223.844452,561.972717 222.085052,546.851379 221.980408,531.732117 
	C221.635269,481.863678 235.313400,435.816132 261.749115,393.488373 
	C273.895721,374.039764 287.950562,356.080658 304.372620,340.207001 
	C324.347534,320.899139 347.089233,305.274353 372.106415,292.996704 
	C388.140198,285.127716 404.657715,278.688995 421.997650,274.377136 
	C423.454132,274.015015 424.842041,273.351379 426.631439,274.571106 
	C426.000977,280.163788 421.416779,283.818329 418.979340,288.957153 
z"/>
<path fill="#000000" opacity="1.000000" stroke="none" 
	d="
M386.706726,944.994324 
	C403.864899,950.191040 421.132019,953.466431 438.270416,957.217224 
	C447.136322,959.157532 456.339630,959.501282 465.337097,960.907959 
	C479.250793,963.083313 493.353394,962.646179 507.330475,964.299622 
	C515.936035,965.317688 524.907959,965.848206 533.627991,963.559448 
	C535.523560,963.061890 537.587219,963.129211 539.577087,963.078796 
	C561.486572,962.523743 583.097473,959.710144 604.662598,955.755310 
	C626.952759,951.667603 648.649536,945.531250 670.124878,938.596069 
	C684.339844,934.005493 698.177490,928.314941 711.691223,921.784241 
	C729.990784,912.940674 748.077148,903.767334 765.170471,892.747925 
	C788.874939,877.466675 810.760498,859.996460 831.291138,840.555603 
	C857.112549,816.104858 879.025452,788.618103 898.414673,759.039429 
	C909.638672,741.917053 918.945557,723.681213 927.615356,705.083984 
	C934.306091,690.731934 940.021423,676.047058 945.206177,661.149048 
	C952.243469,640.927612 957.085815,620.126953 961.045227,599.072754 
	C964.637512,579.970947 966.183899,560.762512 967.114685,541.386841 
	C967.512085,533.114380 968.240417,524.826477 967.883850,516.572937 
	C967.032654,496.870087 966.530518,477.108856 963.395264,457.599579 
	C962.717102,453.379883 962.527954,449.088959 961.269775,444.406219 
	C969.284119,440.815460 977.739136,439.565826 986.272583,438.821045 
	C988.987610,438.584076 989.800842,440.892181 990.170593,443.165344 
	C991.234253,449.705902 992.453857,456.227478 993.289551,462.797577 
	C996.307251,486.520111 997.628235,510.357727 997.046936,534.256836 
	C996.741028,546.833374 996.267883,559.469971 994.728394,571.938416 
	C992.031677,593.779907 988.738159,615.570862 983.073975,636.895447 
	C975.899719,663.905396 966.907715,690.228516 955.536072,715.845886 
	C939.747559,751.413147 919.284851,783.942383 895.462830,814.556335 
	C882.659363,831.010132 868.867676,846.563171 853.798889,860.911499 
	C827.682007,885.779419 799.385193,907.900391 768.233765,926.186829 
	C735.262817,945.541504 700.715576,961.423401 664.104431,972.658325 
	C643.141724,979.091187 621.830383,983.871948 600.204224,987.589600 
	C586.118591,990.010986 572.002686,991.238159 557.821350,992.547241 
	C550.504700,993.222534 543.252747,993.213562 535.973450,993.360535 
	C531.138245,993.458130 526.655762,995.655579 521.698914,995.086182 
	C503.415100,992.985840 484.987610,993.043518 466.641632,991.578369 
	C448.207092,990.106140 430.182678,986.558533 412.224854,982.819641 
	C396.845215,979.617554 381.644867,975.369263 366.585571,970.619873 
	C341.915466,962.839417 318.168945,952.827332 295.154449,941.287842 
	C273.756165,930.558899 252.747101,918.914551 233.589172,904.304321 
	C230.969208,902.306335 230.568710,900.595642 232.697113,898.217102 
	C237.464813,892.889160 242.256790,887.582825 247.008255,882.240417 
	C248.895737,880.118225 250.659424,880.101562 253.063660,881.710571 
	C263.848511,888.928040 274.464569,896.396057 285.913452,902.603027 
	C302.597351,911.648376 319.503662,920.205750 336.966034,927.654602 
	C353.049286,934.515137 369.663635,939.832336 386.706726,944.994324 
z"/>
<path fill="#000000" opacity="1.000000" stroke="none" 
	d="
M790.523010,638.293701 
	C784.408875,664.181519 773.499329,687.143860 756.792542,707.516296 
	C734.676025,734.485413 706.684753,751.678711 673.193115,760.630127 
	C663.354370,763.259705 653.376099,764.217468 643.374207,765.598145 
	C635.570557,766.675354 627.821350,767.280457 620.071777,766.828491 
	C601.880310,765.767639 583.874695,763.484436 566.222229,758.480713 
	C544.470642,752.314941 523.831360,743.673218 504.544952,731.977356 
	C492.449280,724.642090 481.077148,716.187317 470.324982,706.951965 
	C469.879974,706.569763 469.660675,705.924744 469.084198,704.996216 
	C472.335297,703.972412 475.288818,704.052551 478.216675,704.081055 
	C499.817413,704.291382 519.806091,698.358398 538.504822,687.908569 
	C541.727173,686.107727 544.022034,686.198059 547.141418,687.877258 
	C560.043457,694.822571 573.359863,700.864258 587.846558,703.710571 
	C601.956726,706.482788 616.008545,708.120300 630.625732,707.043945 
	C654.798584,705.264038 676.334839,697.680298 695.245056,682.695862 
	C707.043335,673.346924 715.773926,661.546082 722.022827,647.838928 
	C726.090454,638.916565 729.528320,629.879822 730.743958,620.040161 
	C732.011475,609.781128 732.015686,599.628174 730.655273,589.355591 
	C728.235229,571.082764 720.591309,555.084534 709.935913,540.423157 
	C704.841614,533.413696 698.495300,527.440247 691.288696,522.530945 
	C688.725830,520.785034 686.778259,518.691589 685.397461,515.923828 
	C674.541443,494.162598 658.880859,476.142212 641.376526,459.569214 
	C640.659241,458.890076 639.721497,458.405487 639.644897,456.917664 
	C642.330139,454.630737 645.856018,455.921783 648.923096,455.425232 
	C664.259155,452.942322 679.765259,453.657715 695.215637,453.832550 
	C698.873108,453.873871 702.153076,456.227417 705.190063,458.198883 
	C719.723572,467.633148 734.079712,477.309326 745.966248,490.152863 
	C765.076721,510.801819 779.974487,533.761169 787.726868,561.221436 
	C792.939209,579.684143 794.966614,598.306030 793.860535,617.299805 
	C793.458557,624.202393 791.756348,631.029297 790.523010,638.293701 
z"/>
<path fill="#000000" opacity="1.000000" stroke="none" 
	d="
M933.525635,349.478210 
	C924.855347,330.686646 916.086975,312.366058 905.300293,295.100494 
	C894.799805,278.292969 883.634216,261.971313 871.235596,246.465790 
	C858.740662,230.839874 845.513672,215.870712 831.077271,202.086044 
	C810.826965,182.749878 789.043701,165.218918 765.503662,149.958893 
	C747.584656,138.342728 728.941101,127.989456 709.514587,119.173538 
	C692.274963,111.350121 674.715576,104.293030 656.810303,98.004082 
	C634.157288,90.047562 610.829590,85.090324 587.361145,80.700783 
	C577.134888,78.788071 566.664795,78.058823 556.283813,76.950394 
	C543.736938,75.610703 531.028809,74.838585 518.613098,74.903008 
	C503.175964,74.983116 487.564819,76.444130 472.052948,77.785965 
	C453.980591,79.349281 436.271942,82.692955 418.682251,86.483734 
	C400.069977,90.494865 381.663757,95.480988 363.735077,102.296654 
	C344.745514,109.515617 325.987640,117.183189 307.898102,126.366570 
	C289.474091,135.719727 271.665222,146.198441 255.048859,158.547516 
	C251.916321,160.875580 249.759537,161.060974 247.014328,158.063324 
	C242.630203,153.276001 237.983368,148.719101 233.294724,144.224243 
	C230.000427,141.066116 230.582581,138.878036 234.134827,136.320175 
	C259.898834,117.768311 287.381805,102.280708 316.230896,89.050278 
	C335.322937,80.294502 354.815430,72.711922 374.842407,66.449654 
	C393.689270,60.556408 412.834351,56.011395 432.270905,52.399456 
	C447.789764,49.515556 463.481873,48.597263 479.021973,46.407856 
	C491.624786,44.632282 504.343048,44.450619 516.751160,44.675865 
	C530.045410,44.917191 543.496033,44.207703 556.925232,46.288368 
	C569.478394,48.233311 582.338013,48.634167 594.884033,51.020222 
	C606.915833,53.308472 618.939026,55.756851 630.805054,58.768692 
	C641.897644,61.584217 652.791443,65.191032 663.750366,68.523148 
	C678.226746,72.924789 692.333984,78.382973 706.135864,84.515198 
	C730.344849,95.271347 753.946899,107.240448 776.156799,121.786049 
	C793.302246,133.014847 809.880127,145.018417 825.646545,158.124573 
	C837.671936,168.120956 849.471069,178.425507 860.331543,189.642868 
	C877.348999,207.219437 893.298279,225.746490 907.624939,245.658966 
	C927.059875,272.671387 943.414246,301.457031 957.176453,331.668610 
	C963.015015,344.485809 968.660461,357.480225 972.612305,371.110352 
	C973.623230,374.596954 973.138428,376.539703 969.768738,377.678986 
	C964.110413,379.592041 958.390076,381.338715 952.804993,383.445007 
	C949.241089,384.789062 947.318054,383.953461 945.928833,380.361115 
	C941.973206,370.132660 937.766479,360.001251 933.525635,349.478210 
z"/>
<path fill="#000000" opacity="1.000000" stroke="none" 
	d="
M147.537262,778.508484 
	C163.043457,800.023254 179.633545,820.156128 198.473190,838.350464 
	C201.649094,841.417664 201.986328,843.363464 198.530991,846.733521 
	C193.916336,851.234375 190.436371,856.838928 185.194473,860.852173 
	C182.823654,862.667236 181.346527,863.055603 178.927246,860.699585 
	C150.274384,832.795715 125.730881,801.648376 104.583054,767.734863 
	C92.145248,747.789062 81.529793,726.930481 72.498787,705.270325 
	C62.024998,680.149780 53.135277,654.463013 47.283176,627.850464 
	C43.272724,609.612854 40.406261,591.207703 38.359077,572.573120 
	C35.645432,547.872131 35.640099,523.194641 36.093132,498.506378 
	C36.358917,484.022186 38.321999,469.542725 40.283978,455.126526 
	C42.765610,436.892059 46.786766,418.999359 51.127789,401.143585 
	C54.698196,386.457611 59.244267,372.106079 64.491516,357.949615 
	C70.563210,341.568848 77.356636,325.509583 85.293190,309.938141 
	C97.639160,285.715546 111.699104,262.608795 128.197952,240.922119 
	C140.100037,225.277527 152.540802,210.164536 165.848694,195.706512 
	C170.579544,190.566757 175.518204,185.637848 180.222748,180.487396 
	C182.886917,177.570724 184.886337,176.962341 187.847672,180.276260 
	C192.058670,184.988602 196.668137,189.359482 201.275879,193.697235 
	C204.043701,196.302887 204.908463,198.302490 201.636856,201.421097 
	C196.360367,206.450775 191.612961,212.031281 186.560822,217.301239 
	C160.974823,243.990341 139.670914,273.813080 121.446350,305.916107 
	C107.110435,331.169189 95.315819,357.550140 86.676292,385.263123 
	C79.162788,409.364227 73.541481,433.886169 69.727089,458.918518 
	C66.057503,483.000549 64.732925,507.123993 65.298065,531.356079 
	C65.680443,547.751526 66.360199,564.254395 68.640488,580.465332 
	C72.349731,606.835144 78.038086,632.826172 86.239937,658.295105 
	C94.377563,683.564697 104.966293,707.729431 117.449493,731.004089 
	C126.241013,747.395630 135.992828,763.350647 147.537262,778.508484 
z"/>
<path fill="#000000" opacity="1.000000" stroke="none" 
	d="
M413.786560,502.960266 
	C420.573334,490.877472 426.003845,478.276337 436.646515,469.192657 
	C440.185699,471.475586 441.199554,475.030640 443.217529,477.791138 
	C451.626770,489.294678 461.754883,499.067474 473.022125,507.662994 
	C476.037842,509.963684 475.990784,511.739441 474.083801,514.666504 
	C465.203308,528.297424 461.831451,543.685181 461.064697,559.598450 
	C459.515259,591.756836 471.008698,619.426819 491.224457,643.886963 
	C494.159241,647.437927 497.120148,650.967285 500.343903,654.836609 
	C494.326996,658.132996 487.953400,658.707214 481.919220,659.326843 
	C466.965973,660.862427 452.057129,659.805542 437.363403,656.255859 
	C433.264801,655.265747 430.322571,653.321655 427.796539,649.805054 
	C419.574432,638.358765 412.921814,626.047241 408.484711,612.776489 
	C404.134888,599.767090 401.232391,586.365356 400.557800,572.475525 
	C399.636566,553.506042 402.150208,535.101257 407.899841,517.105591 
	C409.410217,512.378296 411.739441,507.912537 413.786560,502.960266 
z"/>
<path fill="#000000" opacity="1.000000" stroke="none" 
	d="
M605.917786,386.305664 
	C593.163818,387.033691 581.412292,390.460693 569.587769,393.523926 
	C569.427185,393.565582 569.272339,393.629700 569.115173,393.684357 
	C554.545105,398.752136 554.287659,398.696472 545.313110,386.307251 
	C542.175903,381.976410 539.646179,377.276825 537.918396,372.214722 
	C535.214600,364.292877 539.119263,356.560486 546.534729,352.702637 
	C555.955322,347.801697 564.728699,350.682373 573.312256,354.220001 
	C592.224182,362.014465 610.659973,370.859467 628.460510,380.976349 
	C629.144348,381.365021 629.692871,381.991882 630.942017,383.045502 
	C622.753479,387.453217 614.066284,383.573120 605.917786,386.305664 
z"/>
<path fill="#000000" opacity="1.000000" stroke="none" 
	d="
M844.906006,284.146545 
	C851.208313,293.775696 851.203613,293.768677 841.710693,300.081726 
	C838.666016,302.106537 835.591980,304.095673 832.644958,306.256134 
	C830.213989,308.038239 828.547852,307.697357 826.964722,305.114258 
	C819.309448,292.622833 810.332520,281.077118 801.017151,269.815979 
	C795.737671,263.433807 790.030151,257.383698 784.225708,251.468292 
	C781.738037,248.933044 781.722717,247.272171 784.303772,245.001083 
	C788.784241,241.058685 793.181458,237.013412 797.461792,232.855042 
	C800.168091,230.225876 801.863770,231.950638 803.656372,233.872849 
	C814.524536,245.526672 825.385193,257.185913 834.716003,270.157501 
	C838.014526,274.742920 841.374390,279.284210 844.906006,284.146545 
z"/>
<path fill="#000000" opacity="1.000000" stroke="none" 
	d="
M729.809631,785.800842 
	C745.915344,772.329712 761.249329,758.622925 774.297302,742.462524 
	C780.644653,734.601135 786.889404,726.635803 793.105286,718.807678 
	C793.997986,719.073608 794.519287,719.125671 794.929993,719.366638 
	C802.984131,724.090393 803.306335,724.402588 797.815674,731.967896 
	C784.301025,750.589050 769.102234,767.661255 752.003418,783.195251 
	C732.611877,800.812134 710.723083,814.565979 688.195435,827.524048 
	C686.471741,828.515564 684.591736,829.234009 682.791687,830.094666 
	C679.423035,831.705139 676.971375,831.390991 675.157349,827.547119 
	C672.477844,821.869141 672.624817,820.614136 678.276306,817.869324 
	C696.471375,809.032410 713.440674,798.239136 729.809631,785.800842 
z"/>
<path fill="#000000" opacity="1.000000" stroke="none" 
	d="
M498.058167,170.854279 
	C507.708038,170.856842 516.867004,170.938950 526.023560,170.827316 
	C529.898560,170.780075 532.597656,171.554001 532.342468,176.265015 
	C532.110291,180.551010 530.601257,183.081345 525.759888,183.101593 
	C516.803345,183.139053 507.848999,183.556641 498.899445,183.930984 
	C481.276398,184.668106 464.006470,187.262680 446.769257,190.617783 
	C427.150513,194.436417 408.233673,200.563110 389.648712,207.773285 
	C383.333130,210.223450 383.471405,204.879730 381.747040,201.696869 
	C379.740753,197.993561 382.503967,197.096695 385.074738,196.084991 
	C404.712372,188.356750 424.848969,182.506256 445.572357,178.294708 
	C462.797363,174.794128 480.066833,172.165192 498.058167,170.854279 
z"/>
<path fill="#000000" opacity="1.000000" stroke="none" 
	d="
M142.817047,519.000000 
	C142.819382,509.008209 142.820648,499.516388 142.828461,490.024597 
	C142.830536,487.497345 142.666534,484.617676 145.533813,483.612885 
	C149.181259,482.334686 153.140411,482.126312 156.703918,483.813934 
	C158.774689,484.794556 158.193802,487.332214 158.196060,489.284760 
	C158.219040,509.267487 158.017807,529.252563 158.265244,549.232239 
	C158.458267,564.818420 160.421417,580.271545 163.578751,595.528564 
	C164.324921,599.134216 162.879959,600.697876 160.036743,601.373901 
	C156.669601,602.174561 153.183411,602.523621 149.729980,602.891541 
	C148.013092,603.074524 146.996246,602.141174 146.749283,600.295410 
	C145.836105,593.470337 144.520767,586.683594 143.936279,579.833008 
	C142.223312,559.755615 142.881470,539.617798 142.817047,519.000000 
z"/>
<path fill="#000000" opacity="1.000000" stroke="none" 
	d="
M819.813721,348.287170 
	C820.739075,350.103912 821.342834,351.691620 822.272400,353.057617 
	C825.088867,357.196381 824.181519,359.618408 819.603882,361.927643 
	C815.425659,364.035400 813.565002,363.852814 811.307129,359.346436 
	C798.502930,333.790649 782.749939,310.222717 763.943176,288.587524 
	C752.299866,275.193207 739.141663,263.531097 725.743347,252.095047 
	C721.416931,248.402298 723.504150,246.246964 725.746887,243.080505 
	C728.598145,239.054749 730.859985,241.614731 733.146973,243.415726 
	C750.437256,257.031433 766.091797,272.258270 780.361877,289.087128 
	C795.763184,307.250061 808.223145,327.217651 819.813721,348.287170 
z"/>
<path fill="#000000" opacity="1.000000" stroke="none" 
	d="
M352.576996,877.366211 
	C353.642639,871.264221 354.616974,865.555542 355.695862,859.866760 
	C356.255951,856.913696 357.736542,855.777649 361.040100,856.576538 
	C370.536194,858.872620 380.141632,860.712891 389.657471,862.932068 
	C397.124451,864.673462 404.071289,875.643738 402.880157,883.273376 
	C402.138458,888.024231 401.537354,892.797974 400.934845,897.569275 
	C400.542480,900.676025 399.317688,903.275757 396.855774,905.292908 
	C390.070343,910.852539 383.482025,915.471680 373.681152,911.424622 
	C367.042725,908.683289 359.547974,908.027771 352.449463,906.382080 
	C349.889679,905.788757 347.320953,904.733215 347.881287,901.522278 
	C349.268066,893.575806 350.959839,885.682434 352.576996,877.366211 
M363.473480,896.743958 
	C368.014740,900.403198 373.772369,899.405884 378.932831,900.645508 
	C383.657562,901.780334 386.475342,899.039185 387.531555,894.496155 
	C388.427368,890.643066 389.282318,886.778076 390.037903,882.895508 
	C390.684692,879.571777 387.502411,873.631287 384.241852,872.714844 
	C380.271606,871.599060 376.165405,870.932373 372.089661,870.237854 
	C368.879700,869.690918 366.763580,870.644775 366.110382,874.359009 
	C364.851501,881.517639 363.632233,888.665833 363.473480,896.743958 
z"/>
<path fill="#000000" opacity="1.000000" stroke="none" 
	d="
M189.957169,709.121521 
	C191.097687,711.190247 191.988388,712.981628 192.993286,714.706543 
	C196.615479,720.924316 196.528748,721.391785 190.586853,725.219055 
	C186.529846,727.832031 182.326370,730.240356 178.428452,733.070740 
	C175.138504,735.459717 173.044968,734.702209 171.217560,731.425232 
	C165.063538,720.389099 158.650757,709.492065 153.766846,697.793396 
	C151.401932,692.128723 148.265991,686.818359 146.440720,680.885437 
	C145.497711,677.820190 146.135010,676.225342 149.015961,675.040222 
	C153.926910,673.019958 158.813614,670.921692 163.603195,668.631714 
	C167.187256,666.918213 169.456100,667.606384 171.175980,671.303345 
	C176.013046,681.700867 181.006592,692.026367 186.014435,702.343384 
	C187.099762,704.579285 188.502945,706.661011 189.957169,709.121521 
z"/>
<path fill="#000000" opacity="1.000000" stroke="none" 
	d="
M602.015259,924.241150 
	C601.396118,924.250793 601.211914,924.207703 601.065613,924.263611 
	C590.039978,928.478394 583.553040,921.596802 577.543213,914.291199 
	C574.179810,910.202637 576.289001,904.628723 574.808411,899.904724 
	C572.213318,891.624817 576.363586,885.244385 580.930786,878.994446 
	C582.721191,876.544373 585.078064,875.280884 588.023010,874.880554 
	C595.073608,873.922058 602.128662,872.987732 609.160583,871.904968 
	C611.292114,871.576721 613.092102,871.781982 614.703735,873.286438 
	C615.675842,874.193848 616.647339,875.172302 617.789856,875.815308 
	C625.642578,880.234680 627.875000,887.377869 628.191956,895.821411 
	C628.407227,901.557068 629.964966,906.989563 626.852905,912.780823 
	C623.432312,919.146240 619.049622,922.756958 611.833618,923.085449 
	C608.700745,923.228027 605.589172,923.837280 602.015259,924.241150 
M597.196289,913.051880 
	C601.469849,912.687256 605.768860,912.490784 609.897949,911.159363 
	C612.546936,910.305115 614.647461,909.192871 614.868652,905.807800 
	C615.241028,900.109802 614.236450,894.561340 613.414673,889.011963 
	C612.963562,885.965637 610.835266,884.261414 607.408325,884.199097 
	C601.486389,884.091492 595.979736,885.949768 590.386597,887.396057 
	C588.173889,887.968201 586.887390,889.855957 587.511169,891.984680 
	C589.192261,897.721680 588.437073,903.858337 590.557861,909.476807 
	C591.547485,912.098694 592.933960,914.390015 597.196289,913.051880 
z"/>
<path fill="#000000" opacity="1.000000" stroke="none" 
	d="
M332.702393,222.661484 
	C338.118591,219.679016 343.306122,217.019409 348.258850,213.977554 
	C352.138763,211.594620 353.625824,213.867081 355.107361,216.791534 
	C356.497742,219.536011 358.943756,222.030212 354.312683,224.491501 
	C333.398224,235.606964 313.896057,248.943665 295.680847,264.001282 
	C281.858826,275.427246 268.773010,287.761169 257.962372,302.244751 
	C257.663818,302.644745 257.453430,303.176178 257.061768,303.430237 
	C254.739670,304.936493 254.071625,310.347717 249.427094,306.389893 
	C243.485733,301.326996 243.338211,300.884308 247.757416,295.493896 
	C269.417969,269.073059 294.726227,246.781387 323.531952,228.438492 
	C326.477173,226.563004 329.425598,224.692429 332.702393,222.661484 
z"/>
<path fill="#000000" opacity="1.000000" stroke="none" 
	d="
M473.200500,924.856628 
	C472.364838,927.652710 470.350952,927.489746 468.578918,927.348816 
	C459.351318,926.615295 450.112305,925.942444 440.923279,924.858337 
	C438.281219,924.546631 435.653198,924.135620 433.013123,924.235596 
	C429.108704,924.383301 427.488007,922.573792 427.794006,918.812988 
	C428.760437,906.935303 429.737396,895.058411 430.714783,883.181702 
	C430.782867,882.354492 430.993805,881.525757 430.959015,880.705383 
	C430.582733,871.829224 431.347626,872.290955 439.786469,872.828796 
	C450.508331,873.512024 461.179962,874.989075 471.871277,876.141907 
	C474.641968,876.440735 475.973236,878.080200 476.035400,880.819885 
	C476.098663,883.607727 475.102844,885.909180 472.235962,886.491333 
	C469.824799,886.981018 466.983795,887.596069 464.854553,886.785583 
	C459.714996,884.829468 454.270599,886.121887 449.156433,884.572266 
	C446.566071,883.787415 444.111908,884.441406 444.357910,887.657715 
	C444.548035,890.143982 440.945129,894.209717 446.887543,894.937744 
	C449.510498,895.259033 452.067993,896.097290 454.764862,895.897522 
	C457.332062,895.707336 459.698639,896.437134 461.973907,897.548584 
	C464.725494,898.892578 464.321350,901.346130 463.924164,903.621216 
	C463.543457,905.802063 461.844086,905.776550 460.031342,905.528687 
	C455.264191,904.876892 450.423553,905.901489 445.635254,904.682678 
	C442.143005,903.793762 442.087738,906.661316 441.796967,909.008362 
	C441.461243,911.718201 440.824921,914.559387 444.985077,914.811096 
	C450.443726,915.141479 455.900146,915.507935 461.358185,915.848755 
	C463.181396,915.962646 465.014252,915.969849 466.829376,916.156067 
	C471.805328,916.666565 474.402344,919.094788 473.200500,924.856628 
z"/>
<path fill="#000000" opacity="1.000000" stroke="none" 
	d="
M666.229004,865.719971 
	C668.759155,868.165833 671.294556,869.971252 674.202148,871.604675 
	C677.720337,868.146790 678.908630,863.702332 680.988220,859.811218 
	C684.791321,852.695190 689.455200,850.109192 697.977539,850.782288 
	C699.122192,852.785767 697.504211,854.221741 696.772949,855.746277 
	C693.820862,861.900513 691.021484,868.154785 687.621277,874.058594 
	C685.103210,878.430359 686.044006,881.390076 689.658508,884.340759 
	C694.163452,888.018372 698.477539,891.928894 702.908813,895.698120 
	C704.182007,896.781189 705.444458,897.820190 705.860657,899.498230 
	C700.281616,904.324402 694.459534,904.697937 689.047180,900.614563 
	C687.587708,899.513489 686.137512,898.386841 684.785461,897.159180 
	C678.920105,891.833862 677.388306,892.043396 674.028381,899.319458 
	C672.774109,902.035828 671.650208,904.791382 670.064087,907.345581 
	C666.783813,912.627991 661.606934,914.743347 654.812805,913.471558 
	C654.018066,911.456360 655.389160,909.966614 656.169556,908.392395 
	C659.201355,902.276367 662.231812,896.156311 665.442505,890.133545 
	C667.358032,886.540283 667.195862,883.645142 663.942566,880.859863 
	C658.890381,876.534607 654.044617,871.968811 649.083130,867.536560 
	C648.002258,866.570984 646.434387,865.993530 646.759033,863.676025 
	C653.273254,862.684387 660.083008,857.565979 666.229004,865.719971 
z"/>
<path fill="#000000" opacity="1.000000" stroke="none" 
	d="
M872.690308,484.092072 
	C871.994690,476.208496 871.101196,468.810638 870.664856,461.385925 
	C870.298950,455.160034 870.617737,455.371094 876.913391,455.691833 
	C881.686584,455.935028 886.362671,455.905273 886.744080,462.060730 
	C886.949280,465.373383 887.675659,468.591949 887.899841,471.833252 
	C889.564453,495.905792 889.138062,520.024536 889.073425,544.132507 
	C889.065430,547.114685 887.916626,548.569336 884.432190,548.240479 
	C873.828552,547.239502 873.808533,547.379700 873.798706,536.877075 
	C873.789246,526.723877 873.534973,516.561768 873.882324,506.420502 
	C874.134155,499.067474 872.611816,491.872528 872.690308,484.092072 
z"/>
<path fill="#000000" opacity="1.000000" stroke="none" 
	d="
M229.773315,276.680908 
	C221.746246,286.645782 213.444275,295.941650 206.732498,306.466705 
	C205.277527,308.748291 203.498962,309.721466 200.934021,307.977417 
	C195.720276,304.432343 190.469711,300.941345 185.232330,297.431030 
	C182.961212,295.908813 182.210358,294.247070 183.930756,291.633575 
	C191.698639,279.833221 200.070694,268.511444 209.505646,257.975647 
	C211.540329,255.703568 212.909607,255.339905 215.628006,257.347412 
	C220.880173,261.226074 225.096436,266.161652 230.038696,270.315948 
	C232.686676,272.541748 232.322067,274.389282 229.773315,276.680908 
z"/>
<path fill="#000000" opacity="1.000000" stroke="none" 
	d="
M528.815613,889.088501 
	C526.185974,889.124573 524.015076,889.068604 521.855103,889.197266 
	C519.062256,889.363770 517.182800,890.895203 516.355164,893.538818 
	C514.246033,900.276245 515.357666,907.061584 516.457886,913.764832 
	C516.910400,916.521667 519.522827,916.924866 522.012390,916.919556 
	C529.178955,916.904236 536.345886,916.877441 543.511902,916.945557 
	C548.680115,916.994690 551.479187,920.284180 550.786438,925.214050 
	C550.539368,926.972534 549.299072,927.111206 547.937378,927.374695 
	C538.422302,929.215637 528.808167,929.260132 519.177063,929.051575 
	C511.989929,928.895935 502.046570,918.964111 501.898346,911.753540 
	C501.840118,908.921387 502.297638,906.014099 501.809906,903.267151 
	C500.169708,894.029114 504.353699,887.254761 510.475830,881.122803 
	C513.829773,877.763611 518.328430,877.517212 522.469421,877.232300 
	C529.767944,876.729980 537.126648,877.155029 544.458496,877.062012 
	C548.445312,877.011475 550.140015,878.691040 550.127747,882.765137 
	C550.114868,887.052734 547.999573,888.234741 544.166138,888.106934 
	C539.183716,887.940735 534.177490,887.790344 528.815613,889.088501 
z"/>
<path fill="#000000" opacity="1.000000" stroke="none" 
	d="
M196.427185,735.314392 
	C200.569168,731.711243 203.128738,732.779663 205.859375,736.898987 
	C212.108978,746.326843 218.814407,755.439575 226.366562,763.914246 
	C231.332077,769.486267 231.262100,769.710388 225.918503,774.649414 
	C222.139359,778.142456 218.080048,781.330811 214.186203,784.701843 
	C212.233612,786.392212 210.646774,786.576355 208.658157,784.499695 
	C198.473145,773.863525 190.296173,761.724854 182.134689,749.563477 
	C180.247147,746.750854 180.788666,744.714966 183.726379,743.024109 
	C187.910065,740.616089 191.994431,738.035583 196.427185,735.314392 
z"/>
<path fill="#000000" opacity="1.000000" stroke="none" 
	d="
M168.608337,315.618958 
	C175.182663,303.373352 173.661621,304.699738 184.498795,311.116333 
	C187.924194,313.144470 191.254776,315.332062 194.660202,317.394745 
	C197.041611,318.837219 197.102036,320.429535 195.651474,322.740753 
	C189.210129,333.004089 183.645111,343.764374 178.422089,354.679596 
	C176.496475,358.703827 174.545929,359.309265 170.800812,357.058289 
	C166.115372,354.242157 161.139557,351.910645 156.301498,349.346497 
	C152.863281,347.524200 152.271378,345.129517 154.118591,341.558655 
	C158.617477,332.861847 163.281601,324.268005 168.608337,315.618958 
z"/>
<path fill="#000000" opacity="1.000000" stroke="none" 
	d="
M877.080688,339.082214 
	C879.849487,346.228912 879.818115,346.167664 873.251221,349.534271 
	C869.115295,351.654633 865.057312,353.934174 861.026978,356.251282 
	C858.176392,357.890137 856.183838,357.690399 854.697693,354.388519 
	C849.714966,343.318237 843.633972,332.819122 837.513977,322.357971 
	C835.770081,319.377136 836.189636,317.577118 839.020630,315.830078 
	C843.680908,312.954193 848.286926,309.983490 852.824524,306.917725 
	C856.396973,304.504028 858.644592,305.924500 860.451355,309.171753 
	C865.936340,319.029999 871.424561,328.886414 877.080688,339.082214 
z"/>
<path fill="#000000" opacity="1.000000" stroke="none" 
	d="
M887.816956,673.698120 
	C886.411133,677.277344 884.147766,677.839844 881.278503,676.306396 
	C876.721191,673.870544 871.862000,672.197327 867.039673,670.411133 
	C862.927673,668.888062 861.619019,666.510742 863.402466,661.948120 
	C867.930298,650.364075 871.308838,638.424072 872.795959,626.002380 
	C873.512451,620.018494 874.675842,619.332397 880.516418,620.675171 
	C882.134094,621.047119 883.739197,621.482300 885.367737,621.797302 
	C888.708252,622.443420 889.987305,624.014771 889.481445,627.739197 
	C888.703552,633.466858 890.171692,639.062378 893.437805,643.800842 
	C895.699036,647.081604 895.793091,649.888916 894.447388,653.489075 
	C892.012939,660.001526 890.084167,666.703003 887.816956,673.698120 
z"/>
<path fill="#000000" opacity="1.000000" stroke="none" 
	d="
M621.232239,199.824615 
	C612.377197,197.383820 603.880859,195.128769 595.412659,192.772415 
	C589.122803,191.022186 588.246460,189.718063 589.614807,184.702301 
	C591.234070,178.766693 591.554749,178.645279 598.625366,180.481903 
	C623.575317,186.962646 648.119751,194.550995 670.946838,206.848373 
	C672.848450,207.872787 674.704590,208.983093 676.566528,210.079483 
	C679.182434,211.619904 679.529846,213.573975 678.270386,216.382202 
	C675.681641,222.153992 675.040649,222.520996 669.458740,219.747940 
	C653.963196,212.049789 638.109131,205.219788 621.232239,199.824615 
z"/>
<path fill="#000000" opacity="1.000000" stroke="none" 
	d="
M166.909393,418.953522 
	C164.704697,428.783722 156.345459,435.649200 147.668503,434.971863 
	C139.307205,434.319122 130.666901,426.105530 129.901794,418.573822 
	C128.668747,406.435944 137.707809,398.904083 145.444489,397.158447 
	C152.377686,395.594147 161.525055,400.700897 164.913895,408.272491 
	C166.337234,411.452606 168.933334,414.638428 166.909393,418.953522 
z"/>
<path fill="#000000" opacity="1.000000" stroke="none" 
	d="
M819.553711,755.276978 
	C824.303894,758.691284 828.721680,761.944763 833.222656,765.078674 
	C835.671631,766.783997 836.481079,768.328430 834.427185,771.159912 
	C827.303345,780.980896 819.471741,790.217163 811.693970,799.505005 
	C810.289246,801.182495 809.040771,801.036743 807.480347,799.718506 
	C802.409485,795.434631 797.306763,791.187256 792.154907,787.001343 
	C790.060913,785.300049 790.413452,783.827637 791.996460,781.985657 
	C799.567810,773.175659 807.108887,764.338501 814.552490,755.420776 
	C816.181030,753.469727 817.594604,753.913818 819.553711,755.276978 
z"/>
<path fill="#000000" opacity="1.000000" stroke="none" 
	d="
M869.794739,405.725098 
	C878.309631,398.265015 889.510864,400.834473 895.352966,407.733276 
	C902.678040,416.383331 901.700623,428.028564 892.611633,434.923889 
	C884.445557,441.119171 872.242371,438.848480 866.404358,430.047363 
	C860.818237,421.626007 861.877014,413.371033 869.794739,405.725098 
z"/>
<path fill="#000000" opacity="1.000000" stroke="none" 
	d="
M101.760544,636.487366 
	C89.475487,629.546570 90.085922,612.227234 100.697533,605.371887 
	C109.912804,599.418701 120.789040,601.753174 126.618324,611.895508 
	C131.525986,620.434326 130.177734,625.903625 124.751732,632.942261 
	C119.661827,639.545044 110.816032,640.579224 101.760544,636.487366 
z"/>
<path fill="#000000" opacity="1.000000" stroke="none" 
	d="
M300.580048,195.020203 
	C294.230103,181.037155 304.174164,168.667938 314.976624,167.783356 
	C323.254944,167.105469 332.058960,173.347351 334.668823,181.684067 
	C336.998108,189.124542 332.366943,199.148239 324.752136,203.147720 
	C317.228760,207.099152 308.221619,204.945618 302.489716,197.805237 
	C301.867523,197.030167 301.341736,196.177719 300.580048,195.020203 
z"/>
<path fill="#000000" opacity="1.000000" stroke="none" 
	d="
M914.707947,604.362183 
	C923.602478,601.391663 932.507141,604.973083 937.074707,613.062134 
	C941.729065,621.304810 939.929077,629.826721 932.094971,636.639465 
	C926.286560,641.690613 915.957214,641.662659 909.392395,636.448059 
	C902.920532,631.307434 900.237427,618.705872 906.774597,610.891357 
	C908.914429,608.333374 911.210144,605.912720 914.707947,604.362183 
z"/>
<path fill="#000000" opacity="1.000000" stroke="none" 
	d="
M870.376343,712.240967 
	C868.371887,715.929138 866.435303,719.231323 864.716858,722.643311 
	C863.265442,725.525146 861.203186,726.587097 858.252930,725.187805 
	C853.148193,722.766541 848.099792,720.225769 843.040955,717.708679 
	C840.740906,716.564270 840.630249,714.843750 841.720520,712.720581 
	C846.805054,702.819031 851.939209,692.940735 856.143127,682.615479 
	C857.207764,680.000732 859.014526,679.208557 861.732727,680.363464 
	C867.078308,682.634705 872.483459,684.765259 877.848572,686.991394 
	C880.631897,688.146301 880.228516,690.362671 879.321960,692.432617 
	C876.465820,698.953918 873.476501,705.416870 870.376343,712.240967 
z"/>
<path fill="#000000" opacity="1.000000" stroke="none" 
	d="
M524.680542,146.256805 
	C512.570251,150.044357 502.690460,144.835098 499.415375,133.296112 
	C497.397583,126.186897 501.875671,116.480164 508.743347,113.076797 
	C516.920166,109.024651 525.906555,111.198708 531.130066,117.967926 
	C539.411682,128.700211 535.764954,139.765182 524.680542,146.256805 
z"/>
<path fill="#000000" opacity="1.000000" stroke="none" 
	d="
M300.668945,857.119873 
	C294.421082,846.723755 297.821014,839.283020 304.263245,833.215881 
	C310.657471,827.193970 319.042999,827.064514 326.591583,832.641541 
	C333.024200,837.394226 335.343781,846.961609 332.184601,854.183228 
	C325.636261,869.152039 307.823395,868.432251 300.668945,857.119873 
z"/>
<path fill="#000000" opacity="1.000000" stroke="none" 
	d="
M251.153793,204.794128 
	C263.959320,198.399384 277.061523,212.384567 276.167542,222.846542 
	C275.557251,229.988251 271.717560,234.657303 265.918304,237.673355 
	C260.525543,240.478058 254.598450,240.439102 249.272583,237.138931 
	C235.445541,228.571014 236.542419,212.148529 251.153793,204.794128 
z"/>
<path fill="#000000" opacity="1.000000" stroke="none" 
	d="
M247.399033,829.889771 
	C237.206879,822.207092 237.468719,808.421204 245.246414,801.436829 
	C252.111969,795.271545 258.986115,794.441223 266.823181,799.931580 
	C274.366364,805.216064 277.386749,814.376709 273.546570,821.786743 
	C268.202179,832.099243 260.173218,835.511719 247.399033,829.889771 
z"/>
<path fill="#000000" opacity="1.000000" stroke="none" 
	d="
M404.911987,162.001251 
	C393.763336,166.365692 393.782196,166.356766 388.936218,156.116028 
	C387.514130,153.110855 386.443481,149.921143 384.981903,146.993607 
	C382.951813,142.927353 384.948303,141.376312 388.101044,140.400650 
	C398.098297,137.306824 408.140198,134.353973 418.196625,131.457016 
	C420.723907,130.728973 422.638977,131.241592 423.319458,134.432617 
	C424.495667,139.948334 426.002502,145.395981 427.458679,150.848694 
	C428.416351,154.434769 426.036499,155.806763 423.441254,156.623322 
	C417.431458,158.514221 411.329773,160.112946 404.911987,162.001251 
z"/>
<path fill="#000000" opacity="1.000000" stroke="none" 
	d="
M847.706299,532.613892 
	C848.440247,521.334106 847.082214,510.585785 846.742432,499.806335 
	C846.609558,495.591309 847.524353,492.757416 852.643677,492.603699 
	C857.601074,492.454834 859.395996,494.415833 859.598267,499.289398 
	C860.316406,516.595642 860.197449,533.912781 859.660278,551.196777 
	C859.510193,556.024292 858.486084,560.972961 858.285461,565.939392 
	C858.139404,569.556030 856.185913,571.710266 852.072144,571.221252 
	C848.407654,570.785706 845.165955,569.781616 845.755859,565.328552 
	C847.175171,554.615479 845.867065,543.759399 847.706299,532.613892 
z"/>
<path fill="#000000" opacity="1.000000" stroke="none" 
	d="
M649.810791,151.604706 
	C648.158386,155.651077 646.560669,159.304459 645.164246,163.033264 
	C644.160278,165.714035 642.739136,166.552002 639.826660,165.625534 
	C631.600647,163.008820 623.591675,159.726654 615.152832,157.744431 
	C611.446045,156.873734 609.474854,155.082855 611.317505,150.536942 
	C613.106506,146.123001 613.751648,141.245590 614.901184,136.572205 
	C615.617676,133.659424 617.116455,132.536743 620.349121,133.266342 
	C630.102356,135.467621 639.551819,138.651001 648.922363,142.018127 
	C654.698914,144.093811 650.251099,148.072372 649.810791,151.604706 
z"/>
<path fill="#000000" opacity="1.000000" stroke="none" 
	d="
M829.493835,639.494385 
	C832.960571,627.665955 836.447998,616.246521 839.504761,604.712830 
	C840.323730,601.622803 841.618225,600.234741 844.578918,600.886353 
	C847.659485,601.564331 851.552002,601.432495 851.301270,606.423706 
	C850.997498,612.469971 848.783081,618.065857 847.298767,623.812805 
	C843.431824,638.785034 837.900391,653.210327 832.088013,667.519165 
	C831.088989,669.978516 830.017029,672.567932 826.276123,671.176392 
	C821.032227,669.225586 819.218628,667.051025 820.614014,663.152405 
	C823.408020,655.345886 826.426941,647.619751 829.493835,639.494385 
z"/>
<path fill="#000000" opacity="1.000000" stroke="none" 
	d="
M723.010437,344.104797 
	C729.740967,345.782990 734.601807,350.591034 740.460327,353.671600 
	C752.132568,359.809113 763.664490,362.829132 775.848328,355.319611 
	C776.708923,354.789154 777.645630,354.382843 779.106750,355.608887 
	C775.880127,361.778107 769.885193,364.048553 763.893250,366.215881 
	C762.383057,366.762146 760.238586,366.337067 760.005554,368.516052 
	C759.800842,370.429626 761.526489,371.398560 762.971863,372.188507 
	C771.829956,377.029816 778.444824,384.062286 783.620056,392.650269 
	C785.917786,396.463226 786.181152,400.680176 787.106018,404.848877 
	C782.383850,401.569977 781.652344,395.539001 777.508484,391.950867 
	C773.442322,388.430054 770.357849,383.661987 763.700928,381.450317 
	C765.726990,391.912598 771.575562,401.592804 765.516663,411.973969 
	C762.338562,406.324493 763.144897,400.131500 761.424927,394.469604 
	C758.640015,385.302155 754.303467,377.295898 747.708252,370.503479 
	C740.284058,362.857269 732.659302,355.405975 725.158386,347.833588 
	C724.160522,346.826263 722.560120,346.142487 723.010437,344.104797 
z"/>
<path fill="#000000" opacity="1.000000" stroke="none" 
	d="
M745.646790,852.477844 
	C741.779358,859.877319 734.479126,863.465149 727.367004,861.732544 
	C720.182068,859.982178 713.997009,852.957764 713.781067,846.302917 
	C713.533875,838.684570 720.446167,829.951843 727.544861,828.914001 
	C736.100098,827.663330 744.189331,832.887329 746.743530,841.125610 
	C747.940857,844.987427 747.695557,848.599426 745.646790,852.477844 
z"/>
<path fill="#000000" opacity="1.000000" stroke="none" 
	d="
M658.689331,172.489716 
	C655.606201,171.261490 655.123108,169.201630 656.039307,166.678360 
	C657.902161,161.548187 659.829102,156.441116 661.761963,151.336746 
	C662.879517,148.385406 665.004517,147.771072 667.749695,148.980865 
	C675.630615,152.454041 683.484619,155.988144 691.372559,159.445190 
	C694.398499,160.771347 695.249390,162.473480 693.528137,165.649185 
	C690.925110,170.451614 688.699463,175.462662 686.411743,180.430313 
	C685.037598,183.414246 683.296570,184.257492 680.127747,182.665619 
	C673.168945,179.169891 666.060303,175.972336 658.689331,172.489716 
z"/>
<path fill="#000000" opacity="1.000000" stroke="none" 
	d="
M770.321899,808.564209 
	C774.896606,802.906372 780.209045,799.022705 787.337524,801.317078 
	C794.623840,803.662292 799.011414,809.193726 800.449890,816.833740 
	C801.480347,822.306824 795.095703,831.457214 789.161255,833.440369 
	C782.039246,835.820374 776.160278,833.984375 771.535645,828.345825 
	C766.566467,822.287170 766.430176,815.670044 770.321899,808.564209 
z"/>
<path fill="#000000" opacity="1.000000" stroke="none" 
	d="
M186.315918,478.948669 
	C184.962189,492.116760 184.104462,504.849091 184.137665,517.637817 
	C184.153381,523.697021 183.530441,524.216187 177.552887,524.190857 
	C171.630966,524.165649 170.930130,523.519470 170.897308,517.612549 
	C170.809723,501.854126 172.425827,486.229248 174.528534,470.634430 
	C174.992584,467.192810 174.698700,463.653656 175.822861,460.284088 
	C177.861145,454.174469 182.225143,458.225555 185.459717,458.311279 
	C188.718948,458.397736 189.235214,460.939545 188.419006,463.814819 
	C187.058899,468.606079 186.613647,473.538147 186.315918,478.948669 
z"/>
<path fill="#000000" opacity="1.000000" stroke="none" 
	d="
M871.007446,607.342102 
	C868.018494,605.855225 867.643127,603.659790 868.168579,600.912415 
	C870.370728,589.399353 872.286926,577.840576 872.692261,566.094543 
	C872.770996,563.812073 873.439148,562.227051 875.983643,561.972046 
	C880.021118,561.567383 883.948181,562.125916 887.786621,563.324951 
	C890.006165,564.018311 890.184570,565.851562 889.935303,567.788635 
	C888.604187,578.133057 888.776245,588.609985 887.054749,598.933716 
	C886.539551,602.023499 885.244263,604.918274 885.269348,608.173645 
	C885.286560,610.404297 883.055969,610.434143 881.414185,610.068237 
	C878.031860,609.314453 874.703613,608.318420 871.007446,607.342102 
z"/>
<path fill="#000000" opacity="1.000000" stroke="none" 
	d="
M101.092422,466.755981 
	C102.740036,466.755585 103.903748,466.755432 105.067444,466.752014 
	C115.109444,466.722595 116.873848,468.175507 114.704414,477.893005 
	C113.108391,485.042053 113.450905,492.074432 113.457535,499.159271 
	C113.461693,503.596802 112.171928,505.660675 107.473038,505.295685 
	C103.671516,505.000366 99.830124,505.178589 96.007011,505.213135 
	C92.674675,505.243225 90.867332,503.510345 91.112549,500.330078 
	C91.912041,489.961273 92.719978,479.583099 93.989677,469.265808 
	C94.458572,465.455688 98.195839,467.132629 101.092422,466.755981 
z"/>
<path fill="#000000" opacity="1.000000" stroke="none" 
	d="
M713.086487,170.815262 
	C719.158630,174.321243 724.882629,177.694794 730.641541,181.007599 
	C733.303833,182.539062 734.037964,184.358154 732.188171,187.092987 
	C729.028320,191.764633 725.934570,196.485657 722.970093,201.283005 
	C721.100708,204.308411 718.898560,204.226532 716.264771,202.535095 
	C710.250977,198.673080 704.239136,194.807877 698.212646,190.965790 
	C695.821899,189.441650 695.371521,187.604874 696.757751,185.058273 
	C698.743958,181.409531 700.479492,177.625153 702.367920,173.922089 
	C705.785095,167.221344 705.799194,167.228531 713.086487,170.815262 
z"/>
<path fill="#000000" opacity="1.000000" stroke="none" 
	d="
M238.762955,718.285522 
	C245.671158,728.709717 253.149689,738.266113 260.928131,747.562317 
	C264.432892,751.751038 267.491333,756.376404 271.782318,759.899292 
	C273.679535,761.456909 273.651184,763.016418 271.990814,764.985474 
	C266.404877,771.610107 266.321167,771.807190 260.208252,765.388977 
	C248.732803,753.340088 238.471756,740.295288 229.310150,726.402466 
	C228.028412,724.458740 226.517868,721.624878 229.718582,720.599731 
	C232.619278,719.670532 234.120056,713.369873 238.762955,718.285522 
z"/>
<path fill="#000000" opacity="1.000000" stroke="none" 
	d="
M573.956299,127.520493 
	C575.307861,123.907448 578.015991,123.547958 580.663025,124.369812 
	C586.374207,126.143021 592.267029,126.810852 598.101807,127.863655 
	C602.106262,128.586182 604.965271,129.933563 603.205566,135.142181 
	C601.518860,140.134811 600.527161,145.369461 599.362915,150.527725 
	C598.907593,152.545044 597.792847,153.510895 595.868530,153.112701 
	C588.763062,151.642334 581.685181,150.038651 574.592102,148.507599 
	C572.401978,148.034866 571.707275,146.885864 572.027161,144.575165 
	C572.792114,139.049850 573.264648,133.484039 573.956299,127.520493 
z"/>
<path fill="#000000" opacity="1.000000" stroke="none" 
	d="
M91.428802,519.767761 
	C92.961212,516.447144 95.695549,516.966797 98.091278,516.964600 
	C115.953812,516.947998 113.174019,515.012329 113.337242,531.721802 
	C113.385887,536.701965 113.290886,541.683716 113.354683,546.663513 
	C113.389740,549.399597 112.408485,550.495728 109.476143,550.250122 
	C105.350304,549.904480 101.183014,550.081909 97.036758,549.939392 
	C94.969978,549.868347 92.804916,549.490967 92.774010,546.810852 
	C92.671379,537.912720 89.588470,529.181702 91.428802,519.767761 
z"/>
<path fill="#000000" opacity="1.000000" stroke="none" 
	d="
M190.099335,588.035828 
	C191.602631,594.424011 193.016022,600.399780 194.535355,606.348511 
	C195.802841,611.311035 195.172897,611.810242 187.874435,614.035034 
	C183.444870,615.385254 182.677322,612.696045 181.905380,609.631592 
	C177.945496,593.911621 174.717133,578.055847 172.838303,561.934570 
	C172.573532,559.662781 173.616684,559.128174 175.357193,558.455750 
	C182.059982,555.866150 184.199234,556.994751 185.438293,563.752747 
	C186.899048,571.720093 188.509674,579.659912 190.099335,588.035828 
z"/>
<path fill="#000000" opacity="1.000000" stroke="none" 
	d="
M940.592041,486.758789 
	C940.806396,491.502289 940.884888,495.819763 940.980103,500.136841 
	C941.056702,503.607758 939.575378,505.381378 935.902161,505.257996 
	C931.915649,505.124115 927.920410,505.212921 923.929626,505.260223 
	C921.341553,505.290924 919.616882,504.269104 919.805176,501.506897 
	C920.373047,493.178253 918.698486,484.970581 918.602417,476.676697 
	C918.561035,473.105316 919.823975,471.442749 923.527527,471.577789 
	C925.987854,471.667480 928.451721,471.770142 930.934021,471.027191 
	C936.763367,469.282623 938.786499,470.791840 939.322327,477.042450 
	C939.589355,480.156128 938.820068,483.388885 940.592041,486.758789 
z"/>
<path fill="#000000" opacity="1.000000" stroke="none" 
	d="
M923.312012,548.902100 
	C920.105713,548.340393 919.724670,546.322021 919.730896,543.979858 
	C919.750488,536.654724 919.814209,529.327942 919.683838,522.004944 
	C919.618042,518.308167 921.391235,516.900940 924.842224,516.936462 
	C928.171326,516.970764 931.516357,517.121155 934.827209,516.866455 
	C939.374695,516.516663 941.240051,518.556030 941.163452,522.934387 
	C941.038330,530.088196 941.106506,537.246643 940.892822,544.397156 
	C940.749329,549.197693 938.653748,550.867310 934.137695,549.448181 
	C930.618286,548.342285 927.187073,549.351807 923.312012,548.902100 
z"/>
<path fill="#000000" opacity="1.000000" stroke="none" 
	d="
M436.970367,139.843140 
	C433.755219,125.949211 433.690033,128.662476 444.550903,126.629738 
	C448.923706,125.811310 453.116241,124.195847 457.625519,123.949173 
	C460.345398,123.800392 461.609863,124.838066 461.923035,127.492157 
	C462.561920,132.906494 463.342407,138.303986 464.012939,143.714813 
	C464.386810,146.732224 462.955902,148.422714 459.982391,148.891769 
	C454.433899,149.767014 448.869049,150.557541 443.349548,151.589493 
	C440.804413,152.065323 440.197845,150.739716 439.672058,148.760117 
	C438.910126,145.891281 437.956970,143.073242 436.970367,139.843140 
z"/>
<path fill="#000000" opacity="1.000000" stroke="none" 
	d="
M199.800110,376.722717 
	C207.739197,376.478485 210.630508,380.253357 208.069992,386.897095 
	C203.531403,398.673309 199.509796,410.622986 196.375351,422.850342 
	C195.519684,426.188293 194.341583,428.697327 190.332443,427.262634 
	C187.134918,426.118347 182.453705,427.401642 184.169708,420.288788 
	C187.450577,406.689697 192.452637,393.752655 197.034805,380.637177 
	C197.507645,379.283783 198.659241,378.167511 199.800110,376.722717 
z"/>
<path fill="#000000" opacity="1.000000" stroke="none" 
	d="
M854.263794,445.813080 
	C855.534790,450.299530 856.222717,454.008423 850.698730,455.678894 
	C844.897217,457.433258 843.171448,456.885956 842.138672,450.799774 
	C840.111816,438.855347 836.952637,427.205383 833.407043,415.669617 
	C831.674500,410.032745 835.888000,409.499451 838.989929,408.193085 
	C842.775452,406.598785 844.302307,409.104156 845.184998,412.398407 
	C848.135925,423.410309 851.168640,434.400269 854.263794,445.813080 
z"/>
<path fill="#000000" opacity="1.000000" stroke="none" 
	d="
M207.331360,683.558350 
	C203.171371,674.270325 198.896683,665.446960 195.317383,656.294495 
	C193.024414,650.431396 197.441238,649.933167 200.700256,648.466064 
	C204.482544,646.763367 205.947189,649.153198 207.296692,652.283813 
	C211.566208,662.188538 215.903107,672.070251 221.341919,681.419922 
	C222.714096,683.778748 224.909103,686.315918 221.337585,688.695068 
	C214.618881,693.170837 213.270035,693.152222 210.324356,688.602356 
	C209.330063,687.066589 208.450424,685.456543 207.331360,683.558350 
z"/>
<path fill="#000000" opacity="1.000000" stroke="none" 
	d="
M922.973511,459.329865 
	C918.156555,459.915344 915.734863,458.729736 915.611938,453.630524 
	C915.469421,447.717987 914.426636,441.827789 913.790466,435.926239 
	C913.413269,432.426727 914.588440,430.177277 918.442688,429.723206 
	C920.398071,429.492798 922.310242,428.826141 924.218140,428.274536 
	C930.431213,426.478180 930.639526,426.447266 931.805420,432.550873 
	C933.126038,439.464996 933.951782,446.473267 935.252808,453.391724 
	C935.844727,456.539856 935.223022,458.062347 931.768860,458.264587 
	C928.989197,458.427338 926.313171,459.676636 922.973511,459.329865 
z"/>
<path fill="#000000" opacity="1.000000" stroke="none" 
	d="
M98.049759,445.995422 
	C99.096596,439.730164 99.888542,433.828217 100.867638,427.957458 
	C101.778130,422.498016 102.811165,421.881104 108.176697,423.061951 
	C108.663338,423.169006 109.147217,423.290741 109.628120,423.421356 
	C118.249992,425.763794 119.674896,427.807068 117.724632,436.458191 
	C116.824364,440.451599 117.274437,444.401581 117.036026,448.366180 
	C116.699554,453.961395 114.096756,455.938202 108.884842,454.218811 
	C106.924957,453.572296 105.007195,453.434753 103.013054,453.392090 
	C97.201202,453.267883 96.584389,452.410858 98.049759,445.995422 
z"/>
<path fill="#000000" opacity="1.000000" stroke="none" 
	d="
M376.161865,158.888962 
	C381.545441,169.521255 381.592834,169.619553 371.331604,174.568207 
	C362.435394,178.858551 364.058746,180.532242 358.013641,170.341888 
	C356.321259,167.489075 355.209686,164.285416 353.458221,161.475479 
	C350.971649,157.486252 352.508820,155.384384 356.341431,153.978806 
	C359.773376,152.720139 363.199554,151.438675 366.286072,149.425858 
	C369.162079,147.550339 371.182037,148.109116 372.538879,151.367767 
	C373.559174,153.818176 374.839569,156.160278 376.161865,158.888962 
z"/>
<path fill="#000000" opacity="1.000000" stroke="none" 
	d="
M306.112732,807.802795 
	C297.277924,800.911682 290.249115,792.615295 282.306427,785.293457 
	C278.241699,781.546387 281.417145,779.752502 283.441528,777.286804 
	C285.758484,774.464783 287.760620,774.376404 290.351318,777.168884 
	C297.373596,784.738159 305.023163,791.635010 313.327911,797.806702 
	C315.154175,799.163879 317.575653,801.561951 314.655945,803.363953 
	C312.002502,805.001526 312.157898,812.155701 306.112732,807.802795 
z"/>
<path fill="#000000" opacity="1.000000" stroke="none" 
	d="
M739.063232,219.280273 
	C742.554382,215.776947 745.875671,212.453964 751.017700,214.136429 
	C755.762817,215.689026 758.985596,218.917862 759.930725,223.996826 
	C760.944885,229.446472 757.731934,232.764526 753.750610,235.515076 
	C750.124512,238.020233 746.543945,237.477127 743.142456,234.863724 
	C736.603394,229.839676 735.518188,226.029999 739.063232,219.280273 
z"/>
<path fill="#000000" opacity="1.000000" stroke="none" 
	d="
M889.890869,376.215210 
	C892.287537,382.559753 893.932373,388.685120 895.215332,396.056458 
	C890.351440,394.372742 886.385498,392.705383 882.052368,393.378632 
	C880.276062,393.654602 878.428040,393.267975 876.666382,394.011322 
	C875.947021,394.314819 874.872009,394.598419 874.293457,394.281036 
	C870.170349,392.019165 871.567444,387.196381 869.674438,383.813873 
	C868.536011,381.779938 870.549438,380.473816 872.252014,379.735168 
	C876.651794,377.826447 881.105286,376.039978 885.555237,374.249207 
	C887.393127,373.509552 888.768921,374.195526 889.890869,376.215210 
z"/>
<path fill="#000000" opacity="1.000000" stroke="none" 
	d="
M221.775452,350.322601 
	C217.018829,348.030365 216.815933,345.087433 219.662643,341.429932 
	C222.415649,337.892792 224.855881,334.085266 227.840759,330.762329 
	C231.726807,326.436127 234.296402,331.219025 237.178970,332.699646 
	C240.116440,334.208466 239.117325,336.398682 237.589813,338.514709 
	C235.156036,341.886230 232.472717,345.139893 230.516068,348.777496 
	C228.197083,353.088654 225.715103,353.908966 221.775452,350.322601 
z"/>
</svg>