<svg xmlns="http://www.w3.org/2000/svg" xmlns:xlink="http://www.w3.org/1999/xlink" version="1.1" id="Layer_1" x="0px" y="0px" width="100%" viewBox="0 0 5040 1260" enable-background="new 0 0 5040 1260" xml:space="preserve">
<path fill="none" fill-opacity="1" stroke="none" d=" M3650.000000,1262.000000   C2433.333496,1262.000000 1217.667114,1262.000000 2.000489,1262.000000   C2.000326,842.000305 2.000326,422.000580 2.000163,2.000659   C1681.999390,2.000439 3361.998779,2.000439 5041.998535,2.000219   C5041.999023,421.999359 5041.999023,841.998718 5041.999512,1261.999023   C4578.333496,1262.000000 4114.666504,1262.000000 3650.000000,1262.000000  M766.739929,871.791870   C782.075500,877.857422 797.093506,884.992065 812.841431,889.669739   C826.894470,893.843872 841.744690,895.355286 856.262939,897.929810   C860.817322,898.737488 864.595154,897.891235 867.138550,893.186768   C872.495178,883.278687 878.730896,873.825745 883.746887,863.758118   C892.312866,846.565247 898.289673,828.355469 902.563965,809.643188   C905.121643,798.446228 908.806641,787.129211 908.924255,775.834290   C909.140991,755.006836 910.739197,734.156860 907.246643,713.241333   C900.512207,672.911743 885.211426,636.575012 860.392456,604.169495   C838.488953,575.570496 811.500610,552.626465 781.352112,533.222534   C757.889648,518.121826 734.116699,503.486786 710.964661,487.926392   C695.546021,477.563538 680.452087,466.658905 669.303223,451.163300   C657.208618,434.353119 646.325012,417.098236 640.698669,396.871735   C637.061890,383.797791 638.629944,370.535736 637.897888,357.346191   C637.350281,347.480011 639.574890,337.956360 642.768982,329.180573   C652.727173,301.821014 668.655701,278.644470 694.063416,262.952240   C712.501160,251.564789 731.613281,242.076447 753.524841,239.620712   C758.078491,239.110367 762.680847,238.827866 767.165588,237.952728   C777.912537,235.855652 788.678345,237.165176 799.437622,237.433655   C800.210754,237.452927 800.959045,238.468384 802.651733,239.698700   C799.006348,245.977951 795.431580,252.135483 791.150146,259.510315   C862.347717,302.742310 931.549133,348.933655 998.732056,398.621460   C1009.605896,389.695862 1020.569092,382.210449 1029.217041,370.734680   C1025.858765,368.098450 1022.848694,365.735657 1019.825684,363.362640   C1017.455505,364.508453 1015.720825,365.434387 1013.919006,366.202972   C1006.298035,369.453827 1003.366882,367.721100 1003.052551,359.583435   C1002.859802,354.591827 1003.438171,349.540527 1002.898438,344.600372   C1002.316284,339.270996 1000.833862,334.039978 999.540710,327.781372   C990.550903,336.095978 993.220459,348.686432 984.426025,355.715179   C982.397522,354.440063 980.558167,353.633392 979.155701,352.349487   C960.528870,335.296875 941.956238,318.184845 923.392822,301.063080   C921.444885,299.266449 919.692627,297.258789 917.762268,295.441742   C906.874390,285.192505 895.953552,274.978333 885.065308,264.729431   C884.100281,263.821106 883.090393,262.863159 882.443481,261.732483   C880.474792,258.291382 881.939941,254.962708 885.792236,254.296860   C887.737183,253.960693 889.789917,254.310257 891.775696,254.138550   C906.110413,252.899124 920.146545,256.039398 934.330872,256.889679   C953.875000,258.061249 973.471069,258.366119 993.044922,259.041321   C993.377930,259.052826 993.713928,259.028015 994.044189,259.061829   C1006.507080,260.337799 1007.793091,261.747955 1008.403381,274.227386   C1008.775452,281.834534 1006.233826,289.817352 1011.844116,297.840820   C1018.011169,285.647491 1023.917603,273.969482 1030.466797,261.020477   C1033.786377,261.020477 1038.045166,260.958557 1042.301392,261.037476   C1046.769653,261.120300 1048.737427,262.962311 1048.203613,267.913269   C1047.137329,277.800903 1046.683350,287.754578 1045.816040,299.935028   C1059.009033,284.312073 1068.687988,268.766022 1078.921631,253.189423   C1068.915039,246.767700 1059.845215,240.666351 1050.504272,235.013031   C1032.896973,224.356705 1015.171570,213.893356 997.423767,203.471619   C979.948303,193.209808 962.462097,182.961502 944.836426,172.961517   C928.116638,163.475540 911.122864,154.471222 894.433960,144.932587   C888.816528,141.721939 883.343445,139.683594 876.685242,139.890366   C831.181702,141.303482 785.594666,137.450851 740.136841,142.023407   C732.269836,142.814743 724.175537,142.822739 716.602539,144.792862   C689.618774,151.812805 663.747070,161.817459 640.104004,176.841400   C625.474854,186.137497 612.637878,197.595764 600.343445,209.876770   C581.555908,228.643753 566.221680,249.663864 555.500610,273.889587   C546.551880,294.110321 540.261414,314.988007 537.637146,337.256317   C535.086609,358.899261 534.897827,380.383026 538.623901,401.543518   C542.375366,422.848206 548.720886,443.597870 558.268921,463.368591   C569.090820,485.777069 583.781799,505.265289 600.374023,523.413574   C628.275024,553.931213 663.138245,575.288269 698.012085,596.627441   C721.527893,611.016602 745.165527,625.311035 763.750671,646.318054   C790.352173,676.386108 806.179077,710.760376 805.898315,751.499146   C805.835144,760.674011 805.060364,769.914673 803.708801,778.990417   C802.305908,788.410645 800.784363,798.019043 797.585510,806.923950   C790.509827,826.621338 781.755981,845.613892 769.379700,862.724548   C767.735779,864.997253 766.997314,867.924927 766.739929,871.791870  M3091.483398,765.613953   C3112.658936,822.015686 3148.031738,867.747192 3196.140137,903.631897   C3232.911133,931.059998 3274.455322,946.674316 3319.961426,952.293030   C3339.850830,954.748840 3359.654541,955.326904 3379.664307,954.242737   C3410.505615,952.571716 3440.321045,946.557678 3468.914795,934.975098   C3516.986816,915.502441 3555.690186,883.671814 3587.569336,843.277283   C3630.183350,789.280090 3648.513184,726.578552 3651.852295,658.916016   C3653.180908,631.985962 3652.140869,605.065125 3648.343750,578.231201   C3643.977295,547.378601 3635.952148,517.657166 3623.200684,489.285950   C3607.178955,453.638123 3584.407471,422.717834 3556.119141,395.826996   C3518.612793,360.173309 3474.935059,336.298065 3423.946533,326.043304   C3400.971924,321.422638 3377.845703,319.606628 3354.478271,319.987732   C3321.953857,320.518219 3290.319336,325.937012 3259.816895,337.377991   C3217.557373,353.228638 3182.246582,379.074646 3151.604004,411.944214   C3124.462891,441.057892 3103.938232,474.133240 3090.428955,511.455292   C3077.648682,546.763245 3071.616699,583.351440 3070.301514,620.903687   C3068.582764,669.968323 3074.224609,717.832397 3091.483398,765.613953  M4377.448730,367.053314   C4387.857422,370.260040 4398.635742,372.612305 4408.572266,376.910492   C4418.806641,381.337463 4421.526367,389.505188 4418.112793,399.939270   C4416.668457,404.354126 4415.116211,408.829285 4412.880859,412.871857   C4405.481934,426.249329 4398.547363,439.982391 4389.996094,452.604553   C4364.633789,490.041229 4338.610352,527.029846 4312.771484,564.142517   C4309.604980,568.691101 4305.991211,572.928772 4302.051270,577.996765   C4300.695312,576.288391 4299.844238,575.385193 4299.183105,574.359680   C4269.276367,527.957886 4239.071289,481.743805 4209.704102,435.002716   C4201.813477,422.443665 4195.880859,408.525513 4190.179199,394.763275   C4186.224121,385.215759 4188.462891,380.294006 4198.076660,376.752716   C4208.275879,372.995819 4218.969238,370.255768 4229.669922,368.276031   C4241.367676,366.111847 4253.321289,365.327057 4265.280762,363.927307   C4265.280762,353.983612 4265.280762,344.215790 4265.280762,334.474152   C4172.016602,334.474152 4079.484619,334.474152 3986.470703,334.474152   C3986.470703,344.493011 3986.470703,354.033142 3986.470703,363.961517   C3995.711670,365.333588 4004.886230,366.577423 4014.019287,368.074127   C4041.166504,372.522827 4065.499268,381.776337 4080.255371,407.244202   C4081.413086,409.242645 4083.121582,410.913361 4084.448730,412.823578   C4134.375000,484.678284 4184.293457,556.538025 4234.185059,628.417114   C4237.917480,633.794312 4241.437012,639.319153 4244.951660,644.618652   C4239.653320,651.841492 4234.969727,658.288147 4230.222656,664.687866   C4200.299805,705.028198 4170.576660,745.519714 4140.352051,785.632690   C4121.150879,811.114685 4101.151855,835.994446 4081.590332,861.205933   C4060.199463,888.775146 4032.078369,903.790283 3997.403076,906.882996   C3991.525635,907.407166 3985.705566,908.571594 3978.967285,909.572693   C3978.967285,914.904053 3978.967529,919.824158 3978.967529,924.744202   C3978.967529,929.652100 3978.967285,934.559937 3978.967285,939.338135   C4000.506348,941.276428 4198.492676,940.433044 4205.490234,938.519165   C4205.490234,928.951172 4205.490234,919.420654 4205.490234,909.418518   C4200.400879,909.107422 4195.775879,908.959290 4191.179199,908.518494   C4177.596191,907.215881 4163.939453,906.171326 4151.371582,900.083191   C4135.861328,892.569153 4132.748535,884.347229 4139.424316,868.686768   C4148.349121,847.749084 4160.820312,828.811462 4173.785645,810.330750   C4199.940918,773.048279 4226.843262,736.288757 4253.534668,699.383789   C4258.293457,692.804504 4263.522461,686.565369 4269.684570,678.700989   C4303.523926,732.374390 4336.742676,784.541016 4369.312012,837.110291   C4376.971191,849.473328 4382.565430,863.134583 4388.845703,876.324463   C4391.184570,881.236877 4392.448730,886.965088 4388.620605,891.422363   C4385.715332,894.805420 4381.557129,897.970947 4377.358398,899.216309   C4366.899902,902.318237 4356.184570,904.791809 4345.412598,906.532227   C4335.005859,908.213684 4324.399902,908.663269 4313.653320,909.675476   C4313.653320,919.915771 4313.653320,929.706055 4313.653320,939.425232   C4337.966797,941.464050 4588.547363,940.506592 4595.438965,938.478027   C4595.438965,928.871826 4595.438965,919.347595 4595.438965,909.400330   C4591.939941,909.236755 4588.986328,909.141479 4586.039062,908.953796   C4571.063477,908.000244 4556.023438,906.824890 4542.318359,900.145264   C4523.726562,891.084045 4508.701172,877.302917 4496.474121,860.952637   C4480.741211,839.914612 4465.938965,818.167908 4451.089355,796.484680   C4424.396484,757.508301 4397.996582,718.331848 4371.416016,679.278503   C4355.905273,656.489502 4340.282715,633.777100 4324.699219,611.014343   C4338.264648,592.514893 4351.428711,574.101807 4365.070312,556.049866   C4400.564941,509.079498 4436.625488,462.532562 4471.750977,415.289703   C4491.657227,388.516693 4517.185547,371.983551 4550.114258,366.989685   C4558.544434,365.711151 4567.063965,365.018280 4576.012207,364.003021   C4576.012207,358.699524 4576.012207,354.056915 4576.012207,349.414337   C4576.012207,344.522552 4576.012207,339.630737 4576.012207,334.669769   C4500.094727,334.669769 4425.325195,334.669769 4350.516602,334.669769   C4350.516602,344.878845 4350.516602,354.394806 4350.516602,364.319977   C4359.243652,365.108032 4367.490723,365.852753 4377.448730,367.053314  M190.350800,495.392029   C185.722244,508.830536 180.209274,522.040894 176.670166,535.760437   C171.215271,556.906677 165.684586,578.213135 162.832733,599.801331   C159.893127,622.053650 159.938431,644.717468 159.093338,667.216858   C158.886536,672.722839 160.826187,678.285645 160.868622,683.829346   C160.980072,698.382690 161.082077,712.880249 163.936417,727.256531   C166.865799,742.010803 168.657776,757.020996 172.184235,771.620422   C179.488068,801.858276 190.169983,830.933289 202.618362,859.503967   C215.316162,888.647034 231.824921,915.333740 250.651794,940.670471   C260.326538,953.690613 270.660431,966.327759 281.716675,978.186768   C294.836975,992.259888 308.396210,1006.074097 322.955139,1018.619629   C343.594177,1036.404419 366.381836,1051.309814 389.859253,1065.258301   C417.070312,1081.424927 445.925201,1093.811279 475.999878,1102.885010   C495.330872,1108.717285 514.955688,1113.924805 535.253052,1116.741211   C553.850220,1119.321777 572.352600,1122.025757 591.102051,1122.119995   C606.006226,1122.194946 620.947205,1120.471680 635.813477,1121.049438   C651.265259,1121.650024 665.758545,1116.348145 680.920959,1115.563232   C685.230652,1115.339966 689.451599,1113.402588 694.964966,1111.913330   C692.193970,1110.229126 690.881470,1109.220581 689.410706,1108.570068   C674.332581,1101.901001 659.060791,1095.641846 644.189331,1088.542847   C633.724365,1083.547363 623.804810,1077.412231 613.622742,1071.820435   C586.343384,1056.838867 562.405396,1037.349976 539.533630,1016.496826   C534.645142,1012.039795 530.061401,1008.761719 523.203491,1006.871399   C476.750793,994.067139 433.917511,973.688904 395.904907,943.630432   C370.996216,923.933838 349.097504,901.323364 330.996613,875.363525   C308.102600,842.529663 290.268585,807.053406 278.280670,768.667725   C269.760834,741.387146 264.891144,713.449585 263.273529,685.111694   C261.629028,656.303162 263.527313,627.560669 268.996857,599.031128   C276.624695,559.243713 290.695404,521.961914 311.036804,487.105743   C323.561310,465.644318 337.770844,445.410797 354.216492,426.482422   C375.634735,401.830933 400.449341,381.618835 427.471252,363.920685   C439.626251,355.959717 453.012146,349.891266 465.727234,342.763824   C469.310608,340.755188 473.798187,339.461548 473.671906,333.701019   C473.299408,316.709991 477.562012,300.379578 482.179871,284.292053   C487.750580,264.885193 494.274170,245.739807 506.124420,228.945496   C509.139099,224.673065 511.539124,219.966904 514.688293,214.675842   C512.215820,214.522446 510.846191,214.070053 509.732300,214.423569   C493.435333,219.595413 477.089996,224.634277 460.919037,230.179718   C429.344360,241.007568 400.324799,257.060638 372.075836,274.568695   C346.553650,290.386749 323.882355,309.896118 301.811462,330.076080   C294.745758,336.536407 288.934601,344.346863 282.226837,351.224976   C264.770416,369.124664 250.279312,389.328186 236.110291,409.800049   C217.871948,436.151398 204.469315,465.109711 190.350800,495.392029  M1561.000000,940.010376   C1669.909424,940.010376 1778.818848,940.010376 1888.219238,940.010376   C1891.889160,880.188599 1895.500488,821.322449 1899.125610,762.232361   C1888.048950,762.232361 1878.428711,762.232361 1869.819092,762.232361   C1860.529053,782.091431 1852.011719,801.581421 1842.396118,820.513611   C1831.539062,841.890564 1819.266846,862.471252 1803.179688,880.514038   C1793.968750,890.844788 1782.651855,897.592468 1769.074219,899.710693   C1756.310181,901.701904 1743.392456,903.639587 1730.518066,903.813293   C1695.259399,904.289001 1659.973511,904.367981 1624.730225,903.418091   C1613.321045,903.110535 1601.982056,899.259583 1590.662964,896.791321   C1578.085693,894.048645 1571.453003,884.925293 1568.547119,873.439148   C1565.878540,862.890442 1563.509277,851.924744 1563.415405,841.121765   C1562.856567,776.807007 1562.991577,712.486206 1562.934814,648.167419   C1562.933838,646.960632 1563.440308,645.753418 1563.834595,643.989380   C1583.178101,643.989380 1602.128174,643.739502 1621.067993,644.073486   C1634.683350,644.313599 1648.362427,644.643677 1661.875488,646.159668   C1684.508423,648.698853 1702.029663,659.419067 1711.905029,680.774658   C1713.440430,684.094666 1715.270142,687.341919 1716.306396,690.818665   C1721.686646,708.867371 1726.853516,726.979553 1732.226074,745.522461   C1741.437134,745.522461 1751.549072,745.522461 1761.486206,745.522461   C1761.486206,666.736511 1761.486206,588.607727 1761.486206,510.378174   C1750.935547,510.378174 1741.038696,510.378174 1730.733154,510.378174   C1729.937500,514.206177 1729.191040,517.721680 1728.477539,521.243835   C1725.301025,536.921814 1721.375854,552.371582 1714.216187,566.793945   C1709.911377,575.465332 1704.946045,583.541687 1697.190796,589.828796   C1681.728638,602.363464 1663.586548,607.127319 1644.388062,607.826843   C1620.101196,608.711670 1595.773071,608.484497 1571.462402,608.680359   C1568.895386,608.701050 1566.325073,608.342224 1563.333008,608.129333   C1563.333008,528.057068 1563.333008,448.547058 1563.333008,368.961517   C1564.527222,368.605957 1565.457520,368.081573 1566.383667,368.088654   C1616.989380,368.475525 1667.628784,366.517090 1718.188843,370.124908   C1737.014160,371.468262 1753.843994,377.356079 1767.371826,391.293640   C1789.856323,414.459167 1808.759277,439.892303 1819.307739,470.826172   C1820.349609,473.881287 1821.632812,476.854126 1822.653809,479.478821   C1833.344727,479.478821 1843.219360,479.478821 1853.339355,479.478821   C1853.339355,430.848480 1853.339355,382.752136 1853.339355,334.348633   C1697.162598,334.348633 1541.630493,334.348633 1385.705933,334.348633   C1385.705933,344.488495 1385.705933,354.257874 1385.705933,364.358459   C1388.673950,364.666656 1390.952271,364.911438 1393.232422,365.138733   C1410.529175,366.863281 1427.240356,370.777039 1443.325073,377.561829   C1458.303711,383.880005 1467.630005,394.563202 1470.457153,410.612976   C1471.259155,415.165436 1471.725098,419.841492 1471.727173,424.461151   C1471.792114,568.437012 1471.780273,712.412903 1471.780273,856.388794   C1471.780273,858.388489 1471.981079,860.412354 1471.745605,862.384094   C1468.973145,885.609253 1462.448364,895.652527 1440.925415,900.813049   C1430.291626,903.362854 1419.415161,904.948364 1408.603516,906.691284   C1400.852173,907.940796 1393.026367,908.727844 1385.555908,909.680115   C1385.555908,920.260986 1385.555908,929.830078 1385.555908,940.010376   C1443.758667,940.010376 1501.379272,940.010376 1561.000000,940.010376  M2471.000000,333.991058   C2385.346191,334.092865 2299.692139,334.194244 2214.038330,334.318695   C2213.774414,334.319061 2213.500488,334.640533 2213.250000,334.836243   C2212.987305,335.041443 2212.747803,335.275848 2212.668701,335.346008   C2212.668701,389.414642 2212.668701,443.273926 2212.668701,497.563660   C2223.108154,497.563660 2233.006836,497.563660 2243.441406,497.563660   C2244.842529,493.658630 2246.299072,489.645203 2247.723877,485.620361   C2260.199219,450.379150 2278.996826,418.837128 2303.597656,390.764526   C2314.567627,378.246246 2328.114014,370.613861 2345.207275,370.030121   C2371.451172,369.133789 2397.686279,367.986237 2423.928955,367.048828   C2426.409424,366.960205 2428.916260,367.608276 2431.850830,367.968292   C2431.850830,371.329834 2431.850830,373.959351 2431.850830,376.588898   C2431.850830,533.913757 2431.879395,691.238647 2431.762939,848.563416   C2431.757324,856.171997 2431.069580,863.892395 2429.656494,871.363403   C2427.052002,885.132812 2419.414062,894.535095 2405.348389,898.874207   C2390.919189,903.325500 2376.166260,905.153809 2361.305908,906.763489   C2352.494141,907.718018 2343.679932,908.651917 2335.175781,909.562012   C2335.175781,920.140930 2335.175781,929.692871 2335.175781,939.563782   C2430.230713,939.563782 2524.732422,939.563782 2619.666016,939.563782   C2619.666016,929.319458 2619.666016,919.522217 2619.666016,909.357727   C2612.337891,908.445984 2605.445801,907.668213 2598.577393,906.718262   C2582.094971,904.438599 2565.667236,901.926147 2549.967041,896.025940   C2534.791748,890.322937 2526.633545,878.857056 2523.679688,863.507141   C2522.432861,857.026428 2522.077637,850.288208 2522.074219,843.666565   C2521.989746,688.341675 2522.008789,533.016724 2522.008789,377.691742   C2522.008789,374.451813 2522.008789,371.211884 2522.008789,368.135193   C2523.929199,367.585449 2524.866211,367.058685 2525.781982,367.092560   C2553.688232,368.124481 2581.625977,368.690460 2609.483887,370.490784   C2625.494385,371.525452 2639.850830,377.722473 2650.831787,390.185028   C2667.634033,409.254272 2681.985596,430.030273 2693.049805,452.896851   C2700.096191,467.460144 2706.121582,482.517609 2712.706543,497.586731   C2721.499512,497.586731 2730.731445,497.586731 2740.436035,497.586731   C2740.436035,442.999542 2740.436035,388.824890 2740.436035,333.991058   C2650.908203,333.991058 2561.954102,333.991058 2471.000000,333.991058  M643.204285,961.002197   C625.860962,962.667236 608.517639,964.332214 591.163574,965.998291   C591.184021,966.210999 591.006165,967.140564 591.334595,967.382324   C611.112732,981.939148 630.235901,997.533081 650.906006,1010.697449   C684.835510,1032.306396 722.035522,1047.042969 760.776611,1057.773804   C768.363831,1059.875366 776.094910,1061.521606 783.830933,1063.006714   C794.759583,1065.104858 805.700378,1067.309082 816.736084,1068.634644   C828.533813,1070.051758 840.435730,1070.924561 852.314087,1071.260620   C865.873535,1071.644531 879.380615,1070.605225 892.938660,1069.308716   C909.410217,1067.733765 925.578735,1065.040161 941.594238,1061.215210   C961.933655,1056.357666 981.229370,1048.743652 1000.042908,1039.544067   C1032.208740,1023.815125 1059.990601,1002.345703 1083.285645,975.492554   C1103.768921,951.880615 1120.465698,925.706970 1132.225952,896.358093   C1142.741211,870.116394 1150.681885,843.186951 1152.521606,815.189880   C1153.838623,795.144836 1154.098633,774.851257 1151.179321,754.536438   C1146.766968,723.832642 1137.493774,694.934875 1124.320312,667.079956   C1111.986206,640.999573 1094.370117,618.558228 1075.625977,596.953491   C1053.590698,571.555115 1026.220215,552.671631 998.105652,534.846985   C989.654663,529.489075 980.486755,526.180847 969.834290,527.114197   C951.721985,528.701111 933.435425,525.355835 915.285278,529.742004   C906.253235,531.924622 896.612671,531.589172 887.065063,532.408508   C899.611511,546.174744 911.653992,559.302979 923.600952,572.517578   C939.025269,589.578491 952.584351,607.982056 962.970337,628.569824   C966.895752,636.350952 970.879456,643.844971 979.123596,648.091125   C982.314026,649.734375 985.516907,651.817627 987.930420,654.425598   C999.174927,666.575867 1011.298889,677.934265 1019.591064,692.646606   C1036.751221,723.092773 1048.268188,754.901306 1047.137695,790.553284   C1046.739624,803.112854 1046.716919,815.630249 1043.617065,827.850830   C1038.218994,849.131714 1029.835693,869.018311 1018.089905,887.787109   C1009.324341,901.793640 998.779358,914.177856 986.418762,924.408081   C971.424255,936.818237 954.660767,946.955139 936.391846,954.640747   C910.678101,965.458557 883.519165,968.196655 856.337952,970.708435   C847.344482,971.539490 838.068420,968.647034 828.886780,968.237976   C806.891479,967.257874 785.626038,962.860107 765.296448,954.620789   C748.780640,947.927185 732.657166,940.265564 716.340881,933.024841   C707.720642,937.228271 699.054382,942.265259 689.808777,945.776978   C675.057434,951.379639 659.920654,955.967712 643.204285,961.002197  M515.345276,574.386597   C500.279633,597.861877 486.526093,622.037659 479.695801,649.342529   C475.805786,664.893311 471.363281,680.653870 470.425171,696.512573   C469.061066,719.572815 468.291779,742.935608 473.983215,765.794434   C477.072449,778.201843 478.797516,791.107605 483.291046,802.973206   C492.350281,826.894653 503.469574,849.949890 519.201538,870.413025   C520.760986,872.441345 522.653015,874.932434 524.875854,875.604736   C533.342590,878.165283 542.016296,880.036804 550.597778,882.224121   C563.102783,885.411438 576.335754,881.970215 588.733398,886.439819   C590.067139,886.920654 591.905273,885.995789 593.510803,885.730774   C596.705872,885.203369 599.886658,884.545349 603.100586,884.184692   C610.623352,883.340637 618.227417,883.022095 625.672180,881.750671   C630.845825,880.867249 635.809448,878.753784 642.696594,876.624084   C638.098389,872.552979 634.414429,870.103333 631.768066,866.818054   C612.961182,843.469788 596.367249,818.818726 585.554382,790.526550   C578.825928,772.921204 574.407837,754.748535 572.939941,736.200989   C571.879700,722.802917 573.935913,709.115417 575.072388,695.596558   C576.663391,676.671387 581.311890,658.570129 590.853699,641.924744   C593.922852,636.570801 596.696594,631.047485 599.692200,625.439148   C572.601074,605.908508 549.810791,583.190857 532.231995,553.791504   C526.184875,561.051575 521.140869,567.107300 515.345276,574.386597  M829.464905,408.487152   C837.360962,404.665894 845.748779,405.866089 853.965332,406.440491   C859.024780,406.794159 863.750305,407.165039 868.632385,402.539948   C857.350098,396.525421 846.708984,390.538696 835.796204,385.096832   C808.320374,371.395508 781.045654,357.363770 751.322449,348.633057   C737.801392,344.661438 726.791748,349.042816 717.101562,356.269318   C708.822205,362.443665 705.947021,372.292877 709.072021,383.164673   C714.304138,401.366974 726.633484,414.635040 738.839783,428.016052   C751.047974,424.557953 762.801636,421.169006 774.589478,417.903625   C791.998779,413.080963 809.580261,409.216553 829.464905,408.487152  M1083.667603,391.664581   C1093.641602,407.831360 1102.124146,424.490356 1102.136353,444.210724   C1102.137329,445.734436 1104.347168,447.256805 1106.196533,449.637390   C1112.379150,431.553925 1103.279175,416.397736 1100.747925,398.722351   C1111.168457,403.229340 1117.767700,408.959595 1123.438232,415.842407   C1128.836060,422.394318 1133.995361,429.142731 1140.359375,437.196564   C1139.731812,424.253143 1133.424805,415.948242 1126.810669,408.240295   C1119.064087,399.212372 1110.653687,390.726349 1099.641479,385.267517   C1097.089478,384.002441 1094.220337,380.485901 1094.093018,377.878571   C1093.887207,373.665558 1098.416504,374.370209 1101.529541,373.409821   C1111.575439,370.310669 1121.056396,366.029205 1126.662720,356.104156   C1124.348877,356.239166 1122.231323,356.782379 1120.422607,357.849182   C1107.911133,365.228760 1094.768188,365.184021 1081.149780,361.754333   C1067.729858,358.374603 1056.516846,350.718750 1044.884644,343.805206   C1041.755859,341.945587 1038.366943,340.523682 1035.097534,338.900909   C1034.874634,339.293030 1034.651733,339.685150 1034.428833,340.077271   C1050.549561,356.888916 1066.670410,373.700562 1083.667603,391.664581  z"/>
<path fill="#21262d" opacity="1.000000" stroke="none" d=" M766.289673,871.170593   C766.997314,867.924927 767.735779,864.997253 769.379700,862.724548   C781.755981,845.613892 790.509827,826.621338 797.585510,806.923950   C800.784363,798.019043 802.305908,788.410645 803.708801,778.990417   C805.060364,769.914673 805.835144,760.674011 805.898315,751.499146   C806.179077,710.760376 790.352173,676.386108 763.750671,646.318054   C745.165527,625.311035 721.527893,611.016602 698.012085,596.627441   C663.138245,575.288269 628.275024,553.931213 600.374023,523.413574   C583.781799,505.265289 569.090820,485.777069 558.268921,463.368591   C548.720886,443.597870 542.375366,422.848206 538.623901,401.543518   C534.897827,380.383026 535.086609,358.899261 537.637146,337.256317   C540.261414,314.988007 546.551880,294.110321 555.500610,273.889587   C566.221680,249.663864 581.555908,228.643753 600.343445,209.876770   C612.637878,197.595764 625.474854,186.137497 640.104004,176.841400   C663.747070,161.817459 689.618774,151.812805 716.602539,144.792862   C724.175537,142.822739 732.269836,142.814743 740.136841,142.023407   C785.594666,137.450851 831.181702,141.303482 876.685242,139.890366   C883.343445,139.683594 888.816528,141.721939 894.433960,144.932587   C911.122864,154.471222 928.116638,163.475540 944.836426,172.961517   C962.462097,182.961502 979.948303,193.209808 997.423767,203.471619   C1015.171570,213.893356 1032.896973,224.356705 1050.504272,235.013031   C1059.845215,240.666351 1068.915039,246.767700 1078.921631,253.189423   C1068.687988,268.766022 1059.009033,284.312073 1045.816040,299.935028   C1046.683350,287.754578 1047.137329,277.800903 1048.203613,267.913269   C1048.737427,262.962311 1046.769653,261.120300 1042.301392,261.037476   C1038.045166,260.958557 1033.786377,261.020477 1030.466797,261.020477   C1023.917603,273.969482 1018.011169,285.647491 1011.844116,297.840820   C1006.233826,289.817352 1008.775452,281.834534 1008.403381,274.227386   C1007.793091,261.747955 1006.507080,260.337799 994.044189,259.061829   C993.713928,259.028015 993.377930,259.052826 993.044922,259.041321   C973.471069,258.366119 953.875000,258.061249 934.330872,256.889679   C920.146545,256.039398 906.110413,252.899124 891.775696,254.138550   C889.789917,254.310257 887.737183,253.960693 885.792236,254.296860   C881.939941,254.962708 880.474792,258.291382 882.443481,261.732483   C883.090393,262.863159 884.100281,263.821106 885.065308,264.729431   C895.953552,274.978333 906.874390,285.192505 917.762268,295.441742   C919.692627,297.258789 921.444885,299.266449 923.392822,301.063080   C941.956238,318.184845 960.528870,335.296875 979.155701,352.349487   C980.558167,353.633392 982.397522,354.440063 984.426025,355.715179   C993.220459,348.686432 990.550903,336.095978 999.540710,327.781372   C1000.833862,334.039978 1002.316284,339.270996 1002.898438,344.600372   C1003.438171,349.540527 1002.859802,354.591827 1003.052551,359.583435   C1003.366882,367.721100 1006.298035,369.453827 1013.919006,366.202972   C1015.720825,365.434387 1017.455505,364.508453 1019.825684,363.362640   C1022.848694,365.735657 1025.858765,368.098450 1029.217041,370.734680   C1020.569092,382.210449 1009.605896,389.695862 998.732056,398.621460   C931.549133,348.933655 862.347717,302.742310 791.150146,259.510315   C795.431580,252.135483 799.006348,245.977951 802.651733,239.698700   C800.959045,238.468384 800.210754,237.452927 799.437622,237.433655   C788.678345,237.165176 777.912537,235.855652 767.165588,237.952728   C762.680847,238.827866 758.078491,239.110367 753.524841,239.620712   C731.613281,242.076447 712.501160,251.564789 694.063416,262.952240   C668.655701,278.644470 652.727173,301.821014 642.768982,329.180573   C639.574890,337.956360 637.350281,347.480011 637.897888,357.346191   C638.629944,370.535736 637.061890,383.797791 640.698669,396.871735   C646.325012,417.098236 657.208618,434.353119 669.303223,451.163300   C680.452087,466.658905 695.546021,477.563538 710.964661,487.926392   C734.116699,503.486786 757.889648,518.121826 781.352112,533.222534   C811.500610,552.626465 838.488953,575.570496 860.392456,604.169495   C885.211426,636.575012 900.512207,672.911743 907.246643,713.241333   C910.739197,734.156860 909.140991,755.006836 908.924255,775.834290   C908.806641,787.129211 905.121643,798.446228 902.563965,809.643188   C898.289673,828.355469 892.312866,846.565247 883.746887,863.758118   C878.730896,873.825745 872.495178,883.278687 867.138550,893.186768   C864.595154,897.891235 860.817322,898.737488 856.262939,897.929810   C841.744690,895.355286 826.894470,893.843872 812.841431,889.669739   C797.093506,884.992065 782.075500,877.857422 766.289673,871.170593  M948.513733,195.952164   C947.266357,193.633545 946.170959,191.216461 944.744751,189.013641   C939.114685,180.317932 930.720825,177.428391 920.827209,180.644043   C910.535217,183.989120 906.110840,191.371521 906.983826,203.742340   C907.562866,211.947220 914.039856,219.972961 921.654297,221.920914   C930.049561,224.068619 939.607788,220.333542 944.503784,213.544113   C948.021301,208.666336 948.474182,203.250137 948.513733,195.952164  z"/>
<path fill="#21262d" opacity="1.000000" stroke="none" d=" M3091.153809,764.907898   C3074.224609,717.832397 3068.582764,669.968323 3070.301514,620.903687   C3071.616699,583.351440 3077.648682,546.763245 3090.428955,511.455292   C3103.938232,474.133240 3124.462891,441.057892 3151.604004,411.944214   C3182.246582,379.074646 3217.557373,353.228638 3259.816895,337.377991   C3290.319336,325.937012 3321.953857,320.518219 3354.478271,319.987732   C3377.845703,319.606628 3400.971924,321.422638 3423.946533,326.043304   C3474.935059,336.298065 3518.612793,360.173309 3556.119141,395.826996   C3584.407471,422.717834 3607.178955,453.638123 3623.200684,489.285950   C3635.952148,517.657166 3643.977295,547.378601 3648.343750,578.231201   C3652.140869,605.065125 3653.180908,631.985962 3651.852295,658.916016   C3648.513184,726.578552 3630.183350,789.280090 3587.569336,843.277283   C3555.690186,883.671814 3516.986816,915.502441 3468.914795,934.975098   C3440.321045,946.557678 3410.505615,952.571716 3379.664307,954.242737   C3359.654541,955.326904 3339.850830,954.748840 3319.961426,952.293030   C3274.455322,946.674316 3232.911133,931.059998 3196.140137,903.631897   C3148.031738,867.747192 3112.658936,822.015686 3091.153809,764.907898  M3173.529785,617.094360   C3173.226318,646.363220 3173.616211,675.562378 3177.140381,704.717834   C3182.415771,748.361633 3193.198975,790.237915 3214.871826,828.774841   C3231.829590,858.927307 3254.269043,883.825928 3285.729736,899.544373   C3320.686279,917.009460 3357.684570,920.067200 3395.482178,913.276855   C3424.115479,908.132935 3449.639893,895.723511 3471.228271,875.686096   C3494.639893,853.956360 3510.357178,827.254944 3522.244873,798.034851   C3538.585449,757.869385 3545.678955,715.743896 3547.931396,672.708618   C3550.090820,631.449158 3548.917236,590.349854 3542.171631,549.431030   C3535.948975,511.685242 3524.748779,475.752563 3505.636719,442.556427   C3486.706543,409.676117 3461.073486,383.938568 3425.242920,369.477112   C3395.438721,357.447968 3364.622314,355.386993 3333.141113,359.852997   C3292.733643,365.585358 3259.986816,384.842316 3234.517822,416.529388   C3214.686279,441.203064 3201.451172,469.330078 3191.898682,499.341614   C3179.907715,537.014526 3175.344971,575.850525 3173.529785,617.094360  z"/>
<path fill="#21262d" opacity="1.000000" stroke="none" d=" M4376.593262,366.825378   C4367.490723,365.852753 4359.243652,365.108032 4350.516602,364.319977   C4350.516602,354.394806 4350.516602,344.878845 4350.516602,334.669769   C4425.325195,334.669769 4500.094727,334.669769 4576.012207,334.669769   C4576.012207,339.630737 4576.012207,344.522552 4576.012207,349.414337   C4576.012207,354.056915 4576.012207,358.699524 4576.012207,364.003021   C4567.063965,365.018280 4558.544434,365.711151 4550.114258,366.989685   C4517.185547,371.983551 4491.657227,388.516693 4471.750977,415.289703   C4436.625488,462.532562 4400.564941,509.079498 4365.070312,556.049866   C4351.428711,574.101807 4338.264648,592.514893 4324.699219,611.014343   C4340.282715,633.777100 4355.905273,656.489502 4371.416016,679.278503   C4397.996582,718.331848 4424.396484,757.508301 4451.089355,796.484680   C4465.938965,818.167908 4480.741211,839.914612 4496.474121,860.952637   C4508.701172,877.302917 4523.726562,891.084045 4542.318359,900.145264   C4556.023438,906.824890 4571.063477,908.000244 4586.039062,908.953796   C4588.986328,909.141479 4591.939941,909.236755 4595.438965,909.400330   C4595.438965,919.347595 4595.438965,928.871826 4595.438965,938.478027   C4588.547363,940.506592 4337.966797,941.464050 4313.653320,939.425232   C4313.653320,929.706055 4313.653320,919.915771 4313.653320,909.675476   C4324.399902,908.663269 4335.005859,908.213684 4345.412598,906.532227   C4356.184570,904.791809 4366.899902,902.318237 4377.358398,899.216309   C4381.557129,897.970947 4385.715332,894.805420 4388.620605,891.422363   C4392.448730,886.965088 4391.184570,881.236877 4388.845703,876.324463   C4382.565430,863.134583 4376.971191,849.473328 4369.312012,837.110291   C4336.742676,784.541016 4303.523926,732.374390 4269.684570,678.700989   C4263.522461,686.565369 4258.293457,692.804504 4253.534668,699.383789   C4226.843262,736.288757 4199.940918,773.048279 4173.785645,810.330750   C4160.820312,828.811462 4148.349121,847.749084 4139.424316,868.686768   C4132.748535,884.347229 4135.861328,892.569153 4151.371582,900.083191   C4163.939453,906.171326 4177.596191,907.215881 4191.179199,908.518494   C4195.775879,908.959290 4200.400879,909.107422 4205.490234,909.418518   C4205.490234,919.420654 4205.490234,928.951172 4205.490234,938.519165   C4198.492676,940.433044 4000.506348,941.276428 3978.967285,939.338135   C3978.967285,934.559937 3978.967529,929.652100 3978.967529,924.744202   C3978.967529,919.824158 3978.967285,914.904053 3978.967285,909.572693   C3985.705566,908.571594 3991.525635,907.407166 3997.403076,906.882996   C4032.078369,903.790283 4060.199463,888.775146 4081.590332,861.205933   C4101.151855,835.994446 4121.150879,811.114685 4140.352051,785.632690   C4170.576660,745.519714 4200.299805,705.028198 4230.222656,664.687866   C4234.969727,658.288147 4239.653320,651.841492 4244.951660,644.618652   C4241.437012,639.319153 4237.917480,633.794312 4234.185059,628.417114   C4184.293457,556.538025 4134.375000,484.678284 4084.448730,412.823578   C4083.121582,410.913361 4081.413086,409.242645 4080.255371,407.244202   C4065.499268,381.776337 4041.166504,372.522827 4014.019287,368.074127   C4004.886230,366.577423 3995.711670,365.333588 3986.470703,363.961517   C3986.470703,354.033142 3986.470703,344.493011 3986.470703,334.474152   C4079.484619,334.474152 4172.016602,334.474152 4265.280762,334.474152   C4265.280762,344.215790 4265.280762,353.983612 4265.280762,363.927307   C4253.321289,365.327057 4241.367676,366.111847 4229.669922,368.276031   C4218.969238,370.255768 4208.275879,372.995819 4198.076660,376.752716   C4188.462891,380.294006 4186.224121,385.215759 4190.179199,394.763275   C4195.880859,408.525513 4201.813477,422.443665 4209.704102,435.002716   C4239.071289,481.743805 4269.276367,527.957886 4299.183105,574.359680   C4299.844238,575.385193 4300.695312,576.288391 4302.051270,577.996765   C4305.991211,572.928772 4309.604980,568.691101 4312.771484,564.142517   C4338.610352,527.029846 4364.633789,490.041229 4389.996094,452.604553   C4398.547363,439.982391 4405.481934,426.249329 4412.880859,412.871857   C4415.116211,408.829285 4416.668457,404.354126 4418.112793,399.939270   C4421.526367,389.505188 4418.806641,381.337463 4408.572266,376.910492   C4398.635742,372.612305 4387.857422,370.260040 4376.593262,366.825378  z"/>
<path fill="#21262d" opacity="1.000000" stroke="none" d=" M190.550598,494.645020   C204.469315,465.109711 217.871948,436.151398 236.110291,409.800049   C250.279312,389.328186 264.770416,369.124664 282.226837,351.224976   C288.934601,344.346863 294.745758,336.536407 301.811462,330.076080   C323.882355,309.896118 346.553650,290.386749 372.075836,274.568695   C400.324799,257.060638 429.344360,241.007568 460.919037,230.179718   C477.089996,224.634277 493.435333,219.595413 509.732300,214.423569   C510.846191,214.070053 512.215820,214.522446 514.688293,214.675842   C511.539124,219.966904 509.139099,224.673065 506.124420,228.945496   C494.274170,245.739807 487.750580,264.885193 482.179871,284.292053   C477.562012,300.379578 473.299408,316.709991 473.671906,333.701019   C473.798187,339.461548 469.310608,340.755188 465.727234,342.763824   C453.012146,349.891266 439.626251,355.959717 427.471252,363.920685   C400.449341,381.618835 375.634735,401.830933 354.216492,426.482422   C337.770844,445.410797 323.561310,465.644318 311.036804,487.105743   C290.695404,521.961914 276.624695,559.243713 268.996857,599.031128   C263.527313,627.560669 261.629028,656.303162 263.273529,685.111694   C264.891144,713.449585 269.760834,741.387146 278.280670,768.667725   C290.268585,807.053406 308.102600,842.529663 330.996613,875.363525   C349.097504,901.323364 370.996216,923.933838 395.904907,943.630432   C433.917511,973.688904 476.750793,994.067139 523.203491,1006.871399   C530.061401,1008.761719 534.645142,1012.039795 539.533630,1016.496826   C562.405396,1037.349976 586.343384,1056.838867 613.622742,1071.820435   C623.804810,1077.412231 633.724365,1083.547363 644.189331,1088.542847   C659.060791,1095.641846 674.332581,1101.901001 689.410706,1108.570068   C690.881470,1109.220581 692.193970,1110.229126 694.964966,1111.913330   C689.451599,1113.402588 685.230652,1115.339966 680.920959,1115.563232   C665.758545,1116.348145 651.265259,1121.650024 635.813477,1121.049438   C620.947205,1120.471680 606.006226,1122.194946 591.102051,1122.119995   C572.352600,1122.025757 553.850220,1119.321777 535.253052,1116.741211   C514.955688,1113.924805 495.330872,1108.717285 475.999878,1102.885010   C445.925201,1093.811279 417.070312,1081.424927 389.859253,1065.258301   C366.381836,1051.309814 343.594177,1036.404419 322.955139,1018.619629   C308.396210,1006.074097 294.836975,992.259888 281.716675,978.186768   C270.660431,966.327759 260.326538,953.690613 250.651794,940.670471   C231.824921,915.333740 215.316162,888.647034 202.618362,859.503967   C190.169983,830.933289 179.488068,801.858276 172.184235,771.620422   C168.657776,757.020996 166.865799,742.010803 163.936417,727.256531   C161.082077,712.880249 160.980072,698.382690 160.868622,683.829346   C160.826187,678.285645 158.886536,672.722839 159.093338,667.216858   C159.938431,644.717468 159.893127,622.053650 162.832733,599.801331   C165.684586,578.213135 171.215271,556.906677 176.670166,535.760437   C180.209274,522.040894 185.722244,508.830536 190.550598,494.645020  z"/>
<path fill="#21262d" opacity="1.000000" stroke="none" d=" M1560.000000,940.010376   C1501.379272,940.010376 1443.758667,940.010376 1385.555908,940.010376   C1385.555908,929.830078 1385.555908,920.260986 1385.555908,909.680115   C1393.026367,908.727844 1400.852173,907.940796 1408.603516,906.691284   C1419.415161,904.948364 1430.291626,903.362854 1440.925415,900.813049   C1462.448364,895.652527 1468.973145,885.609253 1471.745605,862.384094   C1471.981079,860.412354 1471.780273,858.388489 1471.780273,856.388794   C1471.780273,712.412903 1471.792114,568.437012 1471.727173,424.461151   C1471.725098,419.841492 1471.259155,415.165436 1470.457153,410.612976   C1467.630005,394.563202 1458.303711,383.880005 1443.325073,377.561829   C1427.240356,370.777039 1410.529175,366.863281 1393.232422,365.138733   C1390.952271,364.911438 1388.673950,364.666656 1385.705933,364.358459   C1385.705933,354.257874 1385.705933,344.488495 1385.705933,334.348633   C1541.630493,334.348633 1697.162598,334.348633 1853.339355,334.348633   C1853.339355,382.752136 1853.339355,430.848480 1853.339355,479.478821   C1843.219360,479.478821 1833.344727,479.478821 1822.653809,479.478821   C1821.632812,476.854126 1820.349609,473.881287 1819.307739,470.826172   C1808.759277,439.892303 1789.856323,414.459167 1767.371826,391.293640   C1753.843994,377.356079 1737.014160,371.468262 1718.188843,370.124908   C1667.628784,366.517090 1616.989380,368.475525 1566.383667,368.088654   C1565.457520,368.081573 1564.527222,368.605957 1563.333008,368.961517   C1563.333008,448.547058 1563.333008,528.057068 1563.333008,608.129333   C1566.325073,608.342224 1568.895386,608.701050 1571.462402,608.680359   C1595.773071,608.484497 1620.101196,608.711670 1644.388062,607.826843   C1663.586548,607.127319 1681.728638,602.363464 1697.190796,589.828796   C1704.946045,583.541687 1709.911377,575.465332 1714.216187,566.793945   C1721.375854,552.371582 1725.301025,536.921814 1728.477539,521.243835   C1729.191040,517.721680 1729.937500,514.206177 1730.733154,510.378174   C1741.038696,510.378174 1750.935547,510.378174 1761.486206,510.378174   C1761.486206,588.607727 1761.486206,666.736511 1761.486206,745.522461   C1751.549072,745.522461 1741.437134,745.522461 1732.226074,745.522461   C1726.853516,726.979553 1721.686646,708.867371 1716.306396,690.818665   C1715.270142,687.341919 1713.440430,684.094666 1711.905029,680.774658   C1702.029663,659.419067 1684.508423,648.698853 1661.875488,646.159668   C1648.362427,644.643677 1634.683350,644.313599 1621.067993,644.073486   C1602.128174,643.739502 1583.178101,643.989380 1563.834595,643.989380   C1563.440308,645.753418 1562.933838,646.960632 1562.934814,648.167419   C1562.991577,712.486206 1562.856567,776.807007 1563.415405,841.121765   C1563.509277,851.924744 1565.878540,862.890442 1568.547119,873.439148   C1571.453003,884.925293 1578.085693,894.048645 1590.662964,896.791321   C1601.982056,899.259583 1613.321045,903.110535 1624.730225,903.418091   C1659.973511,904.367981 1695.259399,904.289001 1730.518066,903.813293   C1743.392456,903.639587 1756.310181,901.701904 1769.074219,899.710693   C1782.651855,897.592468 1793.968750,890.844788 1803.179688,880.514038   C1819.266846,862.471252 1831.539062,841.890564 1842.396118,820.513611   C1852.011719,801.581421 1860.529053,782.091431 1869.819092,762.232361   C1878.428711,762.232361 1888.048950,762.232361 1899.125610,762.232361   C1895.500488,821.322449 1891.889160,880.188599 1888.219238,940.010376   C1778.818848,940.010376 1669.909424,940.010376 1560.000000,940.010376  z"/>
<path fill="#21262d" opacity="1.000000" stroke="none" d=" M2472.000000,333.991058   C2561.954102,333.991058 2650.908203,333.991058 2740.436035,333.991058   C2740.436035,388.824890 2740.436035,442.999542 2740.436035,497.586731   C2730.731445,497.586731 2721.499512,497.586731 2712.706543,497.586731   C2706.121582,482.517609 2700.096191,467.460144 2693.049805,452.896851   C2681.985596,430.030273 2667.634033,409.254272 2650.831787,390.185028   C2639.850830,377.722473 2625.494385,371.525452 2609.483887,370.490784   C2581.625977,368.690460 2553.688232,368.124481 2525.781982,367.092560   C2524.866211,367.058685 2523.929199,367.585449 2522.008789,368.135193   C2522.008789,371.211884 2522.008789,374.451813 2522.008789,377.691742   C2522.008789,533.016724 2521.989746,688.341675 2522.074219,843.666565   C2522.077637,850.288208 2522.432861,857.026428 2523.679688,863.507141   C2526.633545,878.857056 2534.791748,890.322937 2549.967041,896.025940   C2565.667236,901.926147 2582.094971,904.438599 2598.577393,906.718262   C2605.445801,907.668213 2612.337891,908.445984 2619.666016,909.357727   C2619.666016,919.522217 2619.666016,929.319458 2619.666016,939.563782   C2524.732422,939.563782 2430.230713,939.563782 2335.175781,939.563782   C2335.175781,929.692871 2335.175781,920.140930 2335.175781,909.562012   C2343.679932,908.651917 2352.494141,907.718018 2361.305908,906.763489   C2376.166260,905.153809 2390.919189,903.325500 2405.348389,898.874207   C2419.414062,894.535095 2427.052002,885.132812 2429.656494,871.363403   C2431.069580,863.892395 2431.757324,856.171997 2431.762939,848.563416   C2431.879395,691.238647 2431.850830,533.913757 2431.850830,376.588898   C2431.850830,373.959351 2431.850830,371.329834 2431.850830,367.968292   C2428.916260,367.608276 2426.409424,366.960205 2423.928955,367.048828   C2397.686279,367.986237 2371.451172,369.133789 2345.207275,370.030121   C2328.114014,370.613861 2314.567627,378.246246 2303.597656,390.764526   C2278.996826,418.837128 2260.199219,450.379150 2247.723877,485.620361   C2246.299072,489.645203 2244.842529,493.658630 2243.441406,497.563660   C2233.006836,497.563660 2223.108154,497.563660 2212.668701,497.563660   C2212.668701,443.273926 2212.668701,389.414642 2212.668701,335.346008   C2212.747803,335.275848 2212.987305,335.041443 2213.250000,334.836243   C2213.500488,334.640533 2213.774414,334.319061 2214.038330,334.318695   C2299.692139,334.194244 2385.346191,334.092865 2472.000000,333.991058  z"/>
<path fill="#21262d" opacity="1.000000" stroke="none" d=" M644.075562,960.993530   C659.920654,955.967712 675.057434,951.379639 689.808777,945.776978   C699.054382,942.265259 707.720642,937.228271 716.340881,933.024841   C732.657166,940.265564 748.780640,947.927185 765.296448,954.620789   C785.626038,962.860107 806.891479,967.257874 828.886780,968.237976   C838.068420,968.647034 847.344482,971.539490 856.337952,970.708435   C883.519165,968.196655 910.678101,965.458557 936.391846,954.640747   C954.660767,946.955139 971.424255,936.818237 986.418762,924.408081   C998.779358,914.177856 1009.324341,901.793640 1018.089905,887.787109   C1029.835693,869.018311 1038.218994,849.131714 1043.617065,827.850830   C1046.716919,815.630249 1046.739624,803.112854 1047.137695,790.553284   C1048.268188,754.901306 1036.751221,723.092773 1019.591064,692.646606   C1011.298889,677.934265 999.174927,666.575867 987.930420,654.425598   C985.516907,651.817627 982.314026,649.734375 979.123596,648.091125   C970.879456,643.844971 966.895752,636.350952 962.970337,628.569824   C952.584351,607.982056 939.025269,589.578491 923.600952,572.517578   C911.653992,559.302979 899.611511,546.174744 887.065063,532.408508   C896.612671,531.589172 906.253235,531.924622 915.285278,529.742004   C933.435425,525.355835 951.721985,528.701111 969.834290,527.114197   C980.486755,526.180847 989.654663,529.489075 998.105652,534.846985   C1026.220215,552.671631 1053.590698,571.555115 1075.625977,596.953491   C1094.370117,618.558228 1111.986206,640.999573 1124.320312,667.079956   C1137.493774,694.934875 1146.766968,723.832642 1151.179321,754.536438   C1154.098633,774.851257 1153.838623,795.144836 1152.521606,815.189880   C1150.681885,843.186951 1142.741211,870.116394 1132.225952,896.358093   C1120.465698,925.706970 1103.768921,951.880615 1083.285645,975.492554   C1059.990601,1002.345703 1032.208740,1023.815125 1000.042908,1039.544067   C981.229370,1048.743652 961.933655,1056.357666 941.594238,1061.215210   C925.578735,1065.040161 909.410217,1067.733765 892.938660,1069.308716   C879.380615,1070.605225 865.873535,1071.644531 852.314087,1071.260620   C840.435730,1070.924561 828.533813,1070.051758 816.736084,1068.634644   C805.700378,1067.309082 794.759583,1065.104858 783.830933,1063.006714   C776.094910,1061.521606 768.363831,1059.875366 760.776611,1057.773804   C722.035522,1047.042969 684.835510,1032.306396 650.906006,1010.697449   C630.235901,997.533081 611.112732,981.939148 591.334595,967.382324   C591.006165,967.140564 591.184021,966.210999 591.163574,965.998291   C608.517639,964.332214 625.860962,962.667236 644.075562,960.993530  z"/>
<path fill="#21262d" opacity="1.000000" stroke="none" d=" M515.721069,573.774841   C521.140869,567.107300 526.184875,561.051575 532.231995,553.791504   C549.810791,583.190857 572.601074,605.908508 599.692200,625.439148   C596.696594,631.047485 593.922852,636.570801 590.853699,641.924744   C581.311890,658.570129 576.663391,676.671387 575.072388,695.596558   C573.935913,709.115417 571.879700,722.802917 572.939941,736.200989   C574.407837,754.748535 578.825928,772.921204 585.554382,790.526550   C596.367249,818.818726 612.961182,843.469788 631.768066,866.818054   C634.414429,870.103333 638.098389,872.552979 642.696594,876.624084   C635.809448,878.753784 630.845825,880.867249 625.672180,881.750671   C618.227417,883.022095 610.623352,883.340637 603.100586,884.184692   C599.886658,884.545349 596.705872,885.203369 593.510803,885.730774   C591.905273,885.995789 590.067139,886.920654 588.733398,886.439819   C576.335754,881.970215 563.102783,885.411438 550.597778,882.224121   C542.016296,880.036804 533.342590,878.165283 524.875854,875.604736   C522.653015,874.932434 520.760986,872.441345 519.201538,870.413025   C503.469574,849.949890 492.350281,826.894653 483.291046,802.973206   C478.797516,791.107605 477.072449,778.201843 473.983215,765.794434   C468.291779,742.935608 469.061066,719.572815 470.425171,696.512573   C471.363281,680.653870 475.805786,664.893311 479.695801,649.342529   C486.526093,622.037659 500.279633,597.861877 515.721069,573.774841  z"/>
<path fill="#0d1117" opacity="1.000000" stroke="none" d=" M828.609436,408.675964   C809.580261,409.216553 791.998779,413.080963 774.589478,417.903625   C762.801636,421.169006 751.047974,424.557953 738.839783,428.016052   C726.633484,414.635040 714.304138,401.366974 709.072021,383.164673   C705.947021,372.292877 708.822205,362.443665 717.101562,356.269318   C726.791748,349.042816 737.801392,344.661438 751.322449,348.633057   C781.045654,357.363770 808.320374,371.395508 835.796204,385.096832   C846.708984,390.538696 857.350098,396.525421 868.632385,402.539948   C863.750305,407.165039 859.024780,406.794159 853.965332,406.440491   C845.748779,405.866089 837.360962,404.665894 828.609436,408.675964  z"/>
<path fill="#0d1117" opacity="1.000000" stroke="none" d=" M1083.229370,391.088379   C1066.670410,373.700562 1050.549561,356.888916 1034.428833,340.077271   C1034.651733,339.685150 1034.874634,339.293030 1035.097534,338.900909   C1038.366943,340.523682 1041.755859,341.945587 1044.884644,343.805206   C1056.516846,350.718750 1067.729858,358.374603 1081.149780,361.754333   C1094.768188,365.184021 1107.911133,365.228760 1120.422607,357.849182   C1122.231323,356.782379 1124.348877,356.239166 1126.662720,356.104156   C1121.056396,366.029205 1111.575439,370.310669 1101.529541,373.409821   C1098.416504,374.370209 1093.887207,373.665558 1094.093018,377.878571   C1094.220337,380.485901 1097.089478,384.002441 1099.641479,385.267517   C1110.653687,390.726349 1119.064087,399.212372 1126.810669,408.240295   C1133.424805,415.948242 1139.731812,424.253143 1140.359375,437.196564   C1133.995361,429.142731 1128.836060,422.394318 1123.438232,415.842407   C1117.767700,408.959595 1111.168457,403.229340 1100.747925,398.722351   C1103.279175,416.397736 1112.379150,431.553925 1106.196533,449.637390   C1104.347168,447.256805 1102.137329,445.734436 1102.136353,444.210724   C1102.124146,424.490356 1093.641602,407.831360 1083.229370,391.088379  z"/>
<path fill="none" opacity="1.000000" stroke="none" d=" M948.559448,196.791534   C948.474182,203.250137 948.021301,208.666336 944.503784,213.544113   C939.607788,220.333542 930.049561,224.068619 921.654297,221.920914   C914.039856,219.972961 907.562866,211.947220 906.983826,203.742340   C906.110840,191.371521 910.535217,183.989120 920.827209,180.644043   C930.720825,177.428391 939.114685,180.317932 944.744751,189.013641   C946.170959,191.216461 947.266357,193.633545 948.559448,196.791534  z"/>
<path fill="none" opacity="1.000000" stroke="none" d=" M3173.529785,616.112061   C3175.344971,575.850525 3179.907715,537.014526 3191.898682,499.341614   C3201.451172,469.330078 3214.686279,441.203064 3234.517822,416.529388   C3259.986816,384.842316 3292.733643,365.585358 3333.141113,359.852997   C3364.622314,355.386993 3395.438721,357.447968 3425.242920,369.477112   C3461.073486,383.938568 3486.706543,409.676117 3505.636719,442.556427   C3524.748779,475.752563 3535.948975,511.685242 3542.171631,549.431030   C3548.917236,590.349854 3550.090820,631.449158 3547.931396,672.708618   C3545.678955,715.743896 3538.585449,757.869385 3522.244873,798.034851   C3510.357178,827.254944 3494.639893,853.956360 3471.228271,875.686096   C3449.639893,895.723511 3424.115479,908.132935 3395.482178,913.276855   C3357.684570,920.067200 3320.686279,917.009460 3285.729736,899.544373   C3254.269043,883.825928 3231.829590,858.927307 3214.871826,828.774841   C3193.198975,790.237915 3182.415771,748.361633 3177.140381,704.717834   C3173.616211,675.562378 3173.226318,646.363220 3173.529785,616.112061  z"/>
</svg>